<svg width="208" height="92" viewBox="0 0 208 92" fill="none" xmlns="http://www.w3.org/2000/svg">
<path d="M42.061 56.1221L167.177 56.1221" stroke="#2F2F2F" stroke-width="0.886044"/>
<line x1="77.3397" y1="56.0015" x2="77.3397" y2="22.0242" stroke="#2F2F2F" stroke-width="0.886044"/>
<path d="M77.3471 22.024L94.4958 9.29072" stroke="#2F2F2F" stroke-width="0.886044" stroke-linecap="round"/>
<path d="M94.5024 9.28955L111.669 24.4509" stroke="#2F2F2F" stroke-width="0.886044" stroke-linecap="round" stroke-linejoin="round"/>
<path d="M111.669 24.4512V24.9367" stroke="#2F2F2F" stroke-width="0.459141"/>
<path d="M111.669 56.0015L111.669 24.4511" stroke="#2F2F2F" stroke-width="0.886044" stroke-linecap="round" stroke-linejoin="round"/>
<path d="M78.2183 22.3664L85.6793 16.7505V55.3183H78.2183V22.3664Z" fill="#F3E7D9"/>
<path d="M98.644 24.6953L104.619 19.3335L104.383 55.3187H98.644V24.6953Z" fill="#F3E7D9"/>
<line y1="-0.443022" x2="33.8941" y2="-0.443022" transform="matrix(4.37842e-08 -1 -1 -4.36387e-08 131.684 55.8872)" stroke="#2F2F2F" stroke-width="0.886044"/>
<path d="M132.108 21.993L114.959 9.29092" stroke="#2F2F2F" stroke-width="0.886044" stroke-linecap="round"/>
<path d="M114.955 9.28955L97.7884 24.4138" stroke="#2F2F2F" stroke-width="0.886044" stroke-linecap="round" stroke-linejoin="round"/>
<path d="M97.7881 24.4141V24.8984" stroke="#2F2F2F" stroke-width="0.459141"/>
<path d="M97.7881 55.8872L97.7881 24.4141" stroke="#2F2F2F" stroke-width="0.886044" stroke-linecap="round" stroke-linejoin="round"/>
<path d="M62.1484 39.2686L147.09 39.2686" stroke="#2F2F2F" stroke-width="0.886044"/>
<g filter="url(#filter0_d_286_550)">
<mask id="path-15-outside-1_286_550" maskUnits="userSpaceOnUse" x="19.6777" y="60.6475" width="170" height="13" fill="black">
<rect fill="white" x="19.6777" y="60.6475" width="170" height="13"/>
<path d="M31.3319 72.6475H30.8096L28.6907 68.3797H22.7517L20.6775 72.6475H20.1552L25.7361 61.1873L31.3319 72.6475ZM28.5116 67.947L25.7063 62.2617L22.9606 67.947H28.5116ZM37.472 61.4559H37.9644V72.2147H41.4263V72.6475H37.472V61.4559ZM57.8739 72.6475H57.3517L55.2327 68.3797H49.2937L47.2196 72.6475H46.6973L52.2782 61.1873L57.8739 72.6475ZM55.0537 67.947L52.2483 62.2617L49.5027 67.947H55.0537ZM64.4468 62.5751V72.6475H64.014V61.2918L72.251 71.5134V61.4559H72.6838V72.8116L64.4468 62.5751ZM89.9972 72.6475H89.4749L87.356 68.3797H81.417L79.3429 72.6475H78.8206L84.4014 61.1873L89.9972 72.6475ZM87.1769 67.947L84.3716 62.2617L81.6259 67.947H87.1769ZM115.368 61.4559V72.6475H114.875V62.1722L109.593 72.8564L104.34 62.0379V72.6475H103.848V61.4559H104.549L109.593 71.8417L114.681 61.4559H115.368ZM132.674 72.6475H132.152L130.033 68.3797H124.094L122.019 72.6475H121.497L127.078 61.1873L132.674 72.6475ZM129.854 67.947L127.048 62.2617L124.303 67.947H129.854ZM138.814 61.4559H139.456C140.619 61.4559 141.515 61.7643 142.141 62.3811C142.778 62.9978 143.097 63.8783 143.097 65.0223C143.097 65.6788 142.937 66.2807 142.619 66.8278C142.311 67.375 141.888 67.8077 141.351 68.1261C140.813 68.4345 140.222 68.5887 139.575 68.5887H139.47L143.32 72.6475H142.679L139.291 69.096V72.6475H138.814V61.4559ZM139.56 68.1559C140.127 68.1559 140.644 68.0166 141.112 67.7381C141.579 67.4596 141.948 67.0865 142.216 66.6189C142.485 66.1414 142.619 65.6142 142.619 65.0372C142.619 64.0324 142.345 63.2565 141.798 62.7094C141.261 62.1622 140.49 61.8886 139.485 61.8886H139.291V68.1559H139.56ZM151.171 61.8886H148.589V61.4559H154.215V61.8886H151.663V72.6475H151.171V61.8886ZM160.257 61.4559H160.75V72.6475H160.257V61.4559ZM168.094 62.5751V72.6475H167.661V61.2918L175.898 71.5134V61.4559H176.331V72.8116L168.094 62.5751ZM185.512 72.8564C184.268 72.8564 183.303 72.344 182.617 71.3194V70.5136C182.886 71.1105 183.274 71.578 183.781 71.9163C184.298 72.2545 184.915 72.4236 185.631 72.4236C186.129 72.4236 186.586 72.3142 187.004 72.0953C187.432 71.8765 187.77 71.5681 188.019 71.1702C188.268 70.7723 188.392 70.3146 188.392 69.7973C188.392 69.3298 188.312 68.9269 188.153 68.5887C187.994 68.2504 187.73 67.9271 187.362 67.6187C186.994 67.3004 186.462 66.9273 185.766 66.4996L185.288 66.2011C184.85 65.9325 184.497 65.6938 184.229 65.4849C183.96 65.276 183.726 65.0322 183.527 64.7537C183.269 64.3657 183.139 63.918 183.139 63.4107C183.139 62.7342 183.358 62.207 183.796 61.829C184.234 61.4509 184.791 61.2619 185.467 61.2619C186.382 61.2619 187.109 61.6001 187.646 62.2766V63.0376C187.417 62.6198 187.104 62.2915 186.706 62.0528C186.308 61.814 185.87 61.6947 185.393 61.6947C184.895 61.6947 184.477 61.8488 184.139 62.1572C183.801 62.4656 183.632 62.8785 183.632 63.3958C183.632 63.9031 183.786 64.3408 184.094 64.7089C184.413 65.067 184.945 65.46 185.691 65.8878C186.606 66.425 187.318 66.9124 187.825 67.3501C188.183 67.6784 188.442 68.0415 188.601 68.4394C188.77 68.8374 188.854 69.28 188.854 69.7675C188.854 70.3843 188.71 70.9264 188.422 71.394C188.133 71.8616 187.735 72.2247 187.228 72.4833C186.721 72.732 186.149 72.8564 185.512 72.8564Z"/>
</mask>
<path d="M31.3319 72.6475H30.8096L28.6907 68.3797H22.7517L20.6775 72.6475H20.1552L25.7361 61.1873L31.3319 72.6475ZM28.5116 67.947L25.7063 62.2617L22.9606 67.947H28.5116ZM37.472 61.4559H37.9644V72.2147H41.4263V72.6475H37.472V61.4559ZM57.8739 72.6475H57.3517L55.2327 68.3797H49.2937L47.2196 72.6475H46.6973L52.2782 61.1873L57.8739 72.6475ZM55.0537 67.947L52.2483 62.2617L49.5027 67.947H55.0537ZM64.4468 62.5751V72.6475H64.014V61.2918L72.251 71.5134V61.4559H72.6838V72.8116L64.4468 62.5751ZM89.9972 72.6475H89.4749L87.356 68.3797H81.417L79.3429 72.6475H78.8206L84.4014 61.1873L89.9972 72.6475ZM87.1769 67.947L84.3716 62.2617L81.6259 67.947H87.1769ZM115.368 61.4559V72.6475H114.875V62.1722L109.593 72.8564L104.34 62.0379V72.6475H103.848V61.4559H104.549L109.593 71.8417L114.681 61.4559H115.368ZM132.674 72.6475H132.152L130.033 68.3797H124.094L122.019 72.6475H121.497L127.078 61.1873L132.674 72.6475ZM129.854 67.947L127.048 62.2617L124.303 67.947H129.854ZM138.814 61.4559H139.456C140.619 61.4559 141.515 61.7643 142.141 62.3811C142.778 62.9978 143.097 63.8783 143.097 65.0223C143.097 65.6788 142.937 66.2807 142.619 66.8278C142.311 67.375 141.888 67.8077 141.351 68.1261C140.813 68.4345 140.222 68.5887 139.575 68.5887H139.47L143.32 72.6475H142.679L139.291 69.096V72.6475H138.814V61.4559ZM139.56 68.1559C140.127 68.1559 140.644 68.0166 141.112 67.7381C141.579 67.4596 141.948 67.0865 142.216 66.6189C142.485 66.1414 142.619 65.6142 142.619 65.0372C142.619 64.0324 142.345 63.2565 141.798 62.7094C141.261 62.1622 140.49 61.8886 139.485 61.8886H139.291V68.1559H139.56ZM151.171 61.8886H148.589V61.4559H154.215V61.8886H151.663V72.6475H151.171V61.8886ZM160.257 61.4559H160.75V72.6475H160.257V61.4559ZM168.094 62.5751V72.6475H167.661V61.2918L175.898 71.5134V61.4559H176.331V72.8116L168.094 62.5751ZM185.512 72.8564C184.268 72.8564 183.303 72.344 182.617 71.3194V70.5136C182.886 71.1105 183.274 71.578 183.781 71.9163C184.298 72.2545 184.915 72.4236 185.631 72.4236C186.129 72.4236 186.586 72.3142 187.004 72.0953C187.432 71.8765 187.77 71.5681 188.019 71.1702C188.268 70.7723 188.392 70.3146 188.392 69.7973C188.392 69.3298 188.312 68.9269 188.153 68.5887C187.994 68.2504 187.73 67.9271 187.362 67.6187C186.994 67.3004 186.462 66.9273 185.766 66.4996L185.288 66.2011C184.85 65.9325 184.497 65.6938 184.229 65.4849C183.96 65.276 183.726 65.0322 183.527 64.7537C183.269 64.3657 183.139 63.918 183.139 63.4107C183.139 62.7342 183.358 62.207 183.796 61.829C184.234 61.4509 184.791 61.2619 185.467 61.2619C186.382 61.2619 187.109 61.6001 187.646 62.2766V63.0376C187.417 62.6198 187.104 62.2915 186.706 62.0528C186.308 61.814 185.87 61.6947 185.393 61.6947C184.895 61.6947 184.477 61.8488 184.139 62.1572C183.801 62.4656 183.632 62.8785 183.632 63.3958C183.632 63.9031 183.786 64.3408 184.094 64.7089C184.413 65.067 184.945 65.46 185.691 65.8878C186.606 66.425 187.318 66.9124 187.825 67.3501C188.183 67.6784 188.442 68.0415 188.601 68.4394C188.77 68.8374 188.854 69.28 188.854 69.7675C188.854 70.3843 188.71 70.9264 188.422 71.394C188.133 71.8616 187.735 72.2247 187.228 72.4833C186.721 72.732 186.149 72.8564 185.512 72.8564Z" fill="black"/>
<path d="M31.3319 72.6475V72.7361H31.4737L31.4115 72.6086L31.3319 72.6475ZM30.8096 72.6475L30.7302 72.6869L30.7547 72.7361H30.8096V72.6475ZM28.6907 68.3797L28.77 68.3403L28.7456 68.2911H28.6907V68.3797ZM22.7517 68.3797V68.2911H22.6962L22.672 68.341L22.7517 68.3797ZM20.6775 72.6475V72.7361H20.733L20.7572 72.6862L20.6775 72.6475ZM20.1552 72.6475L20.0756 72.6087L20.0135 72.7361H20.1552V72.6475ZM25.7361 61.1873L25.8157 61.1484L25.736 60.9851L25.6564 61.1485L25.7361 61.1873ZM28.5116 67.947V68.0356H28.6541L28.5911 67.9078L28.5116 67.947ZM25.7063 62.2617L25.7857 62.2225L25.7054 62.0597L25.6265 62.2232L25.7063 62.2617ZM22.9606 67.947L22.8808 67.9085L22.8194 68.0356H22.9606V67.947ZM31.3319 72.5589H30.8096V72.7361H31.3319V72.5589ZM30.889 72.6081L28.77 68.3403L28.6113 68.4191L30.7302 72.6869L30.889 72.6081ZM28.6907 68.2911H22.7517V68.4684H28.6907V68.2911ZM22.672 68.341L20.5978 72.6087L20.7572 72.6862L22.8314 68.4185L22.672 68.341ZM20.6775 72.5589H20.1552V72.7361H20.6775V72.5589ZM20.2349 72.6863L25.8158 61.2261L25.6564 61.1485L20.0756 72.6087L20.2349 72.6863ZM25.6565 61.2262L31.2523 72.6863L31.4115 72.6086L25.8157 61.1484L25.6565 61.2262ZM28.5911 67.9078L25.7857 62.2225L25.6268 62.3009L28.4321 67.9862L28.5911 67.9078ZM25.6265 62.2232L22.8808 67.9085L23.0404 67.9855L25.786 62.3002L25.6265 62.2232ZM22.9606 68.0356H28.5116V67.8584H22.9606V68.0356ZM37.472 61.4559V61.3673H37.3834V61.4559H37.472ZM37.9644 61.4559H38.053V61.3673H37.9644V61.4559ZM37.9644 72.2147H37.8758V72.3033H37.9644V72.2147ZM41.4263 72.2147H41.5149V72.1261H41.4263V72.2147ZM41.4263 72.6475V72.7361H41.5149V72.6475H41.4263ZM37.472 72.6475H37.3834V72.7361H37.472V72.6475ZM37.472 61.5445H37.9644V61.3673H37.472V61.5445ZM37.8758 61.4559V72.2147H38.053V61.4559H37.8758ZM37.9644 72.3033H41.4263V72.1261H37.9644V72.3033ZM41.3377 72.2147V72.6475H41.5149V72.2147H41.3377ZM41.4263 72.5589H37.472V72.7361H41.4263V72.5589ZM37.5606 72.6475V61.4559H37.3834V72.6475H37.5606ZM57.8739 72.6475V72.7361H58.0158L57.9536 72.6086L57.8739 72.6475ZM57.3517 72.6475L57.2723 72.6869L57.2967 72.7361H57.3517V72.6475ZM55.2327 68.3797L55.3121 68.3403L55.2877 68.2911H55.2327V68.3797ZM49.2937 68.3797V68.2911H49.2383L49.2141 68.341L49.2937 68.3797ZM47.2196 72.6475V72.7361H47.275L47.2993 72.6862L47.2196 72.6475ZM46.6973 72.6475L46.6176 72.6087L46.5556 72.7361H46.6973V72.6475ZM52.2782 61.1873L52.3578 61.1484L52.2781 60.9851L52.1985 61.1485L52.2782 61.1873ZM55.0537 67.947V68.0356H55.1962L55.1331 67.9078L55.0537 67.947ZM52.2483 62.2617L52.3278 62.2225L52.2475 62.0597L52.1685 62.2232L52.2483 62.2617ZM49.5027 67.947L49.4229 67.9085L49.3615 68.0356H49.5027V67.947ZM57.8739 72.5589H57.3517V72.7361H57.8739V72.5589ZM57.431 72.6081L55.3121 68.3403L55.1534 68.4191L57.2723 72.6869L57.431 72.6081ZM55.2327 68.2911H49.2937V68.4684H55.2327V68.2911ZM49.2141 68.341L47.1399 72.6087L47.2993 72.6862L49.3734 68.4185L49.2141 68.341ZM47.2196 72.5589H46.6973V72.7361H47.2196V72.5589ZM46.777 72.6863L52.3578 61.2261L52.1985 61.1485L46.6176 72.6087L46.777 72.6863ZM52.1985 61.2262L57.7943 72.6863L57.9536 72.6086L52.3578 61.1484L52.1985 61.2262ZM55.1331 67.9078L52.3278 62.2225L52.1689 62.3009L54.9742 67.9862L55.1331 67.9078ZM52.1685 62.2232L49.4229 67.9085L49.5824 67.9855L52.3281 62.3002L52.1685 62.2232ZM49.5027 68.0356H55.0537V67.8584H49.5027V68.0356ZM64.4468 62.5751L64.5158 62.5195L64.3582 62.3236V62.5751H64.4468ZM64.4468 72.6475V72.7361H64.5354V72.6475H64.4468ZM64.014 72.6475H63.9254V72.7361H64.014V72.6475ZM64.014 61.2918L64.083 61.2362L63.9254 61.0406V61.2918H64.014ZM72.251 71.5134L72.182 71.569L72.3396 71.7645V71.5134H72.251ZM72.251 61.4559V61.3673H72.1624V61.4559H72.251ZM72.6838 61.4559H72.7724V61.3673H72.6838V61.4559ZM72.6838 72.8116L72.6147 72.8672L72.7724 73.0631V72.8116H72.6838ZM64.3582 62.5751V72.6475H64.5354V62.5751H64.3582ZM64.4468 72.5589H64.014V72.7361H64.4468V72.5589ZM64.1026 72.6475V61.2918H63.9254V72.6475H64.1026ZM63.945 61.3474L72.182 71.569L72.32 71.4578L64.083 61.2362L63.945 61.3474ZM72.3396 71.5134V61.4559H72.1624V71.5134H72.3396ZM72.251 61.5445H72.6838V61.3673H72.251V61.5445ZM72.5952 61.4559V72.8116H72.7724V61.4559H72.5952ZM72.7528 72.7561L64.5158 62.5195L64.3777 62.6306L72.6147 72.8672L72.7528 72.7561ZM89.9972 72.6475V72.7361H90.1391L90.0768 72.6086L89.9972 72.6475ZM89.4749 72.6475L89.3956 72.6869L89.42 72.7361H89.4749V72.6475ZM87.356 68.3797L87.4354 68.3403L87.4109 68.2911H87.356V68.3797ZM81.417 68.3797V68.2911H81.3616L81.3373 68.341L81.417 68.3797ZM79.3429 72.6475V72.7361H79.3983L79.4225 72.6862L79.3429 72.6475ZM78.8206 72.6475L78.7409 72.6087L78.6789 72.7361H78.8206V72.6475ZM84.4014 61.1873L84.4811 61.1484L84.4013 60.9851L84.3218 61.1485L84.4014 61.1873ZM87.1769 67.947V68.0356H87.3195L87.2564 67.9078L87.1769 67.947ZM84.3716 62.2617L84.451 62.2225L84.3707 62.0597L84.2918 62.2232L84.3716 62.2617ZM81.6259 67.947L81.5461 67.9085L81.4847 68.0356H81.6259V67.947ZM89.9972 72.5589H89.4749V72.7361H89.9972V72.5589ZM89.5543 72.6081L87.4354 68.3403L87.2766 68.4191L89.3956 72.6869L89.5543 72.6081ZM87.356 68.2911H81.417V68.4684H87.356V68.2911ZM81.3373 68.341L79.2632 72.6087L79.4225 72.6862L81.4967 68.4185L81.3373 68.341ZM79.3429 72.5589H78.8206V72.7361H79.3429V72.5589ZM78.9002 72.6863L84.4811 61.2261L84.3218 61.1485L78.7409 72.6087L78.9002 72.6863ZM84.3218 61.2262L89.9176 72.6863L90.0768 72.6086L84.4811 61.1484L84.3218 61.2262ZM87.2564 67.9078L84.451 62.2225L84.2921 62.3009L87.0975 67.9862L87.2564 67.9078ZM84.2918 62.2232L81.5461 67.9085L81.7057 67.9855L84.4514 62.3002L84.2918 62.2232ZM81.6259 68.0356H87.1769V67.8584H81.6259V68.0356ZM115.368 61.4559H115.456V61.3673H115.368V61.4559ZM115.368 72.6475V72.7361H115.456V72.6475H115.368ZM114.875 72.6475H114.787V72.7361H114.875V72.6475ZM114.875 62.1722H114.964L114.796 62.1329L114.875 62.1722ZM109.593 72.8564L109.513 72.8951L109.592 73.0577L109.672 72.8956L109.593 72.8564ZM104.34 62.0379L104.42 61.9992L104.252 62.0379H104.34ZM104.34 72.6475V72.7361H104.429V72.6475H104.34ZM103.848 72.6475H103.759V72.7361H103.848V72.6475ZM103.848 61.4559V61.3673H103.759V61.4559H103.848ZM104.549 61.4559L104.629 61.4172L104.605 61.3673H104.549V61.4559ZM109.593 71.8417L109.513 71.8804L109.593 72.0438L109.673 71.8807L109.593 71.8417ZM114.681 61.4559V61.3673H114.626L114.602 61.4169L114.681 61.4559ZM115.279 61.4559V72.6475H115.456V61.4559H115.279ZM115.368 72.5589H114.875V72.7361H115.368V72.5589ZM114.964 72.6475V62.1722H114.787V72.6475H114.964ZM114.796 62.1329L109.514 72.8171L109.672 72.8956L114.955 62.2114L114.796 62.1329ZM109.673 72.8177L104.42 61.9992L104.261 62.0766L109.513 72.8951L109.673 72.8177ZM104.252 62.0379V72.6475H104.429V62.0379H104.252ZM104.34 72.5589H103.848V72.7361H104.34V72.5589ZM103.937 72.6475V61.4559H103.759V72.6475H103.937ZM103.848 61.5445H104.549V61.3673H103.848V61.5445ZM104.47 61.4946L109.513 71.8804L109.673 71.803L104.629 61.4172L104.47 61.4946ZM109.673 71.8807L114.761 61.4949L114.602 61.4169L109.513 71.8027L109.673 71.8807ZM114.681 61.5445H115.368V61.3673H114.681V61.5445ZM132.674 72.6475V72.7361H132.816L132.753 72.6086L132.674 72.6475ZM132.152 72.6475L132.072 72.6869L132.097 72.7361H132.152V72.6475ZM130.033 68.3797L130.112 68.3403L130.088 68.2911H130.033V68.3797ZM124.094 68.3797V68.2911H124.038L124.014 68.341L124.094 68.3797ZM122.019 72.6475V72.7361H122.075L122.099 72.6862L122.019 72.6475ZM121.497 72.6475L121.417 72.6087L121.355 72.7361H121.497V72.6475ZM127.078 61.1873L127.158 61.1484L127.078 60.9851L126.998 61.1485L127.078 61.1873ZM129.854 67.947V68.0356H129.996L129.933 67.9078L129.854 67.947ZM127.048 62.2617L127.128 62.2225L127.047 62.0597L126.968 62.2232L127.048 62.2617ZM124.303 67.947L124.223 67.9085L124.161 68.0356H124.303V67.947ZM132.674 72.5589H132.152V72.7361H132.674V72.5589ZM132.231 72.6081L130.112 68.3403L129.953 68.4191L132.072 72.6869L132.231 72.6081ZM130.033 68.2911H124.094V68.4684H130.033V68.2911ZM124.014 68.341L121.94 72.6087L122.099 72.6862L124.173 68.4185L124.014 68.341ZM122.019 72.5589H121.497V72.7361H122.019V72.5589ZM121.577 72.6863L127.158 61.2261L126.998 61.1485L121.417 72.6087L121.577 72.6863ZM126.998 61.2262L132.594 72.6863L132.753 72.6086L127.158 61.1484L126.998 61.2262ZM129.933 67.9078L127.128 62.2225L126.969 62.3009L129.774 67.9862L129.933 67.9078ZM126.968 62.2232L124.223 67.9085L124.382 67.9855L127.128 62.3002L126.968 62.2232ZM124.303 68.0356H129.854V67.8584H124.303V68.0356ZM138.814 61.4559V61.3673H138.725V61.4559H138.814ZM142.141 62.3811L142.079 62.4442L142.08 62.4447L142.141 62.3811ZM142.619 66.8278L142.542 66.7833L142.542 66.7843L142.619 66.8278ZM141.351 68.1261L141.395 68.2029L141.396 68.2023L141.351 68.1261ZM139.47 68.5887V68.5001H139.264L139.406 68.6496L139.47 68.5887ZM143.32 72.6475V72.7361H143.527L143.385 72.5865L143.32 72.6475ZM142.679 72.6475L142.615 72.7086L142.641 72.7361H142.679V72.6475ZM139.291 69.096L139.355 69.0349L139.203 68.8747V69.096H139.291ZM139.291 72.6475V72.7361H139.38V72.6475H139.291ZM138.814 72.6475H138.725V72.7361H138.814V72.6475ZM141.112 67.7381L141.157 67.8142L141.112 67.7381ZM142.216 66.6189L142.293 66.6631L142.293 66.6624L142.216 66.6189ZM141.798 62.7094L141.735 62.7714L141.736 62.772L141.798 62.7094ZM139.291 61.8886V61.8H139.203V61.8886H139.291ZM139.291 68.1559H139.203V68.2445H139.291V68.1559ZM138.814 61.5445H139.456V61.3673H138.814V61.5445ZM139.456 61.5445C140.604 61.5445 141.474 61.8485 142.079 62.4442L142.204 62.3179C141.556 61.6801 140.635 61.3673 139.456 61.3673V61.5445ZM142.08 62.4447C142.695 63.0403 143.008 63.8949 143.008 65.0223H143.185C143.185 63.8616 142.862 62.9554 142.203 62.3174L142.08 62.4447ZM143.008 65.0223C143.008 65.6638 142.853 66.2502 142.542 66.7833L142.696 66.8724C143.022 66.3112 143.185 65.6939 143.185 65.0223H143.008ZM142.542 66.7843C142.241 67.318 141.829 67.7395 141.305 68.0498L141.396 68.2023C141.946 67.876 142.38 67.4319 142.696 66.8714L142.542 66.7843ZM141.307 68.0492C140.783 68.3496 140.207 68.5001 139.575 68.5001V68.6773C140.236 68.6773 140.844 68.5194 141.395 68.2029L141.307 68.0492ZM139.575 68.5001H139.47V68.6773H139.575V68.5001ZM139.406 68.6496L143.256 72.7084L143.385 72.5865L139.535 68.5277L139.406 68.6496ZM143.32 72.5589H142.679V72.7361H143.32V72.5589ZM142.743 72.5863L139.355 69.0349L139.227 69.1572L142.615 72.7086L142.743 72.5863ZM139.203 69.096V72.6475H139.38V69.096H139.203ZM139.291 72.5589H138.814V72.7361H139.291V72.5589ZM138.902 72.6475V61.4559H138.725V72.6475H138.902ZM139.56 68.2445C140.142 68.2445 140.675 68.1013 141.157 67.8142L141.067 67.662C140.613 67.932 140.112 68.0673 139.56 68.0673V68.2445ZM141.157 67.8142C141.638 67.528 142.017 67.1439 142.293 66.6631L142.139 66.5748C141.878 67.029 141.521 67.3911 141.067 67.662L141.157 67.8142ZM142.293 66.6624C142.57 66.1709 142.708 65.6286 142.708 65.0372H142.53C142.53 65.5998 142.4 66.112 142.139 66.5755L142.293 66.6624ZM142.708 65.0372C142.708 64.0163 142.429 63.215 141.861 62.6467L141.736 62.772C142.262 63.298 142.53 64.0486 142.53 65.0372H142.708ZM141.862 62.6473C141.303 62.0784 140.506 61.8 139.485 61.8V61.9772C140.474 61.9772 141.219 62.2461 141.735 62.7714L141.862 62.6473ZM139.485 61.8H139.291V61.9772H139.485V61.8ZM139.203 61.8886V68.1559H139.38V61.8886H139.203ZM139.291 68.2445H139.56V68.0673H139.291V68.2445ZM151.171 61.8886H151.259V61.8H151.171V61.8886ZM148.589 61.8886H148.501V61.9772H148.589V61.8886ZM148.589 61.4559V61.3673H148.501V61.4559H148.589ZM154.215 61.4559H154.303V61.3673H154.215V61.4559ZM154.215 61.8886V61.9772H154.303V61.8886H154.215ZM151.663 61.8886V61.8H151.574V61.8886H151.663ZM151.663 72.6475V72.7361H151.752V72.6475H151.663ZM151.171 72.6475H151.082V72.7361H151.171V72.6475ZM151.171 61.8H148.589V61.9772H151.171V61.8ZM148.678 61.8886V61.4559H148.501V61.8886H148.678ZM148.589 61.5445H154.215V61.3673H148.589V61.5445ZM154.126 61.4559V61.8886H154.303V61.4559H154.126ZM154.215 61.8H151.663V61.9772H154.215V61.8ZM151.574 61.8886V72.6475H151.752V61.8886H151.574ZM151.663 72.5589H151.171V72.7361H151.663V72.5589ZM151.259 72.6475V61.8886H151.082V72.6475H151.259ZM160.257 61.4559V61.3673H160.169V61.4559H160.257ZM160.75 61.4559H160.838V61.3673H160.75V61.4559ZM160.75 72.6475V72.7361H160.838V72.6475H160.75ZM160.257 72.6475H160.169V72.7361H160.257V72.6475ZM160.257 61.5445H160.75V61.3673H160.257V61.5445ZM160.661 61.4559V72.6475H160.838V61.4559H160.661ZM160.75 72.5589H160.257V72.7361H160.75V72.5589ZM160.346 72.6475V61.4559H160.169V72.6475H160.346ZM168.094 62.5751L168.163 62.5195L168.005 62.3236V62.5751H168.094ZM168.094 72.6475V72.7361H168.183V72.6475H168.094ZM167.661 72.6475H167.573V72.7361H167.661V72.6475ZM167.661 61.2918L167.73 61.2362L167.573 61.0406V61.2918H167.661ZM175.898 71.5134L175.829 71.569L175.987 71.7645V71.5134H175.898ZM175.898 61.4559V61.3673H175.81V61.4559H175.898ZM176.331 61.4559H176.42V61.3673H176.331V61.4559ZM176.331 72.8116L176.262 72.8672L176.42 73.0631V72.8116H176.331ZM168.005 62.5751V72.6475H168.183V62.5751H168.005ZM168.094 72.5589H167.661V72.7361H168.094V72.5589ZM167.75 72.6475V61.2918H167.573V72.6475H167.75ZM167.592 61.3474L175.829 71.569L175.967 71.4578L167.73 61.2362L167.592 61.3474ZM175.987 71.5134V61.4559H175.81V71.5134H175.987ZM175.898 61.5445H176.331V61.3673H175.898V61.5445ZM176.242 61.4559V72.8116H176.42V61.4559H176.242ZM176.4 72.7561L168.163 62.5195L168.025 62.6306L176.262 72.8672L176.4 72.7561ZM182.617 71.3194H182.528V71.3463L182.543 71.3687L182.617 71.3194ZM182.617 70.5136L182.698 70.4772L182.528 70.5136H182.617ZM183.781 71.9163L183.732 71.99L183.732 71.9904L183.781 71.9163ZM187.004 72.0953L186.964 72.0165L186.963 72.0169L187.004 72.0953ZM188.019 71.1702L188.094 71.2171L188.019 71.1702ZM187.362 67.6187L187.304 67.6857L187.305 67.6866L187.362 67.6187ZM185.766 66.4996L185.719 66.5747L185.719 66.5751L185.766 66.4996ZM185.288 66.2011L185.335 66.126L185.334 66.1256L185.288 66.2011ZM184.229 65.4849L184.174 65.5548L184.229 65.4849ZM183.527 64.7537L183.454 64.8029L183.455 64.8052L183.527 64.7537ZM187.646 62.2766H187.734V62.2457L187.715 62.2215L187.646 62.2766ZM187.646 63.0376L187.568 63.0802L187.734 63.0376H187.646ZM184.139 62.1572L184.199 62.2227L184.139 62.1572ZM184.094 64.7089L184.026 64.7658L184.028 64.7678L184.094 64.7089ZM185.691 65.8878L185.736 65.8113L185.735 65.8109L185.691 65.8878ZM187.825 67.3501L187.885 67.2848L187.883 67.283L187.825 67.3501ZM188.601 68.4394L188.519 68.4723L188.519 68.4741L188.601 68.4394ZM188.422 71.394L188.497 71.4405L188.422 71.394ZM187.228 72.4833L187.267 72.5629L187.268 72.5623L187.228 72.4833ZM185.512 72.7678C184.298 72.7678 183.36 72.2699 182.691 71.2701L182.543 71.3687C183.246 72.4182 184.239 72.945 185.512 72.945V72.7678ZM182.706 71.3194V70.5136H182.528V71.3194H182.706ZM182.536 70.55C182.811 71.1609 183.21 71.6419 183.732 71.99L183.83 71.8426C183.338 71.5142 182.96 71.0601 182.698 70.4772L182.536 70.55ZM183.732 71.9904C184.266 72.3395 184.901 72.5122 185.631 72.5122V72.335C184.929 72.335 184.33 72.1695 183.829 71.8421L183.732 71.9904ZM185.631 72.5122C186.142 72.5122 186.614 72.3997 187.045 72.1738L186.963 72.0169C186.559 72.2287 186.115 72.335 185.631 72.335V72.5122ZM187.045 72.1742C187.486 71.9483 187.837 71.629 188.094 71.2171L187.944 71.1232C187.704 71.5072 187.378 71.8047 186.964 72.0165L187.045 72.1742ZM188.094 71.2171C188.352 70.8037 188.48 70.3295 188.48 69.7973H188.303C188.303 70.2998 188.183 70.7408 187.944 71.1232L188.094 71.2171ZM188.48 69.7973C188.48 69.3199 188.399 68.9035 188.233 68.5509L188.073 68.6264C188.225 68.9502 188.303 69.3396 188.303 69.7973H188.48ZM188.233 68.5509C188.067 68.1982 187.794 67.8652 187.419 67.5508L187.305 67.6866C187.666 67.989 187.921 68.3026 188.073 68.6264L188.233 68.5509ZM187.42 67.5517C187.047 67.2288 186.51 66.8529 185.812 66.4241L185.719 66.5751C186.414 67.0018 186.941 67.3719 187.304 67.6857L187.42 67.5517ZM185.813 66.4244L185.335 66.126L185.241 66.2763L185.719 66.5747L185.813 66.4244ZM185.334 66.1256C184.898 65.8579 184.548 65.6211 184.283 65.4149L184.174 65.5548C184.446 65.7665 184.803 66.0071 185.242 66.2766L185.334 66.1256ZM184.283 65.4149C184.021 65.2113 183.793 64.9738 183.599 64.7022L183.455 64.8052C183.659 65.0907 183.899 65.3406 184.174 65.5548L184.283 65.4149ZM183.601 64.7045C183.353 64.3324 183.228 63.9022 183.228 63.4107H183.051C183.051 63.9339 183.184 64.399 183.454 64.8028L183.601 64.7045ZM183.228 63.4107C183.228 62.7551 183.439 62.2543 183.854 61.896L183.738 61.7619C183.277 62.1597 183.051 62.7133 183.051 63.4107H183.228ZM183.854 61.896C184.273 61.5342 184.808 61.3505 185.467 61.3505V61.1733C184.773 61.1733 184.194 61.3677 183.738 61.7619L183.854 61.896ZM185.467 61.3505C186.357 61.3505 187.057 61.6778 187.576 62.3317L187.715 62.2215C187.16 61.5225 186.408 61.1733 185.467 61.1733V61.3505ZM187.557 62.2766V63.0376H187.734V62.2766H187.557ZM187.724 62.9951C187.487 62.5639 187.163 62.2239 186.751 61.9768L186.66 62.1288C187.044 62.3592 187.347 62.6758 187.568 63.0802L187.724 62.9951ZM186.751 61.9768C186.339 61.7295 185.886 61.606 185.393 61.606V61.7833C185.854 61.7833 186.276 61.8985 186.66 62.1288L186.751 61.9768ZM185.393 61.606C184.875 61.606 184.435 61.7671 184.079 62.0918L184.199 62.2227C184.519 61.9305 184.915 61.7833 185.393 61.7833V61.606ZM184.079 62.0918C183.72 62.4192 183.543 62.8571 183.543 63.3958H183.72C183.72 62.8998 183.881 62.512 184.199 62.2227L184.079 62.0918ZM183.543 63.3958C183.543 63.9227 183.704 64.3808 184.026 64.7658L184.162 64.652C183.868 64.3008 183.72 63.8836 183.72 63.3958H183.543ZM184.028 64.7678C184.356 65.1366 184.898 65.5352 185.647 65.9646L185.735 65.8109C184.992 65.3847 184.469 64.9975 184.161 64.65L184.028 64.7678ZM185.646 65.9642C186.559 66.5 187.265 66.9844 187.767 67.4172L187.883 67.283C187.37 66.8404 186.653 66.3499 185.736 65.8113L185.646 65.9642ZM187.765 67.4154C188.115 67.7359 188.365 68.0883 188.519 68.4723L188.683 68.4065C188.518 67.9947 188.251 67.6209 187.885 67.2848L187.765 67.4154ZM188.519 68.4741C188.683 68.8597 188.766 69.2904 188.766 69.7675H188.943C188.943 69.2697 188.857 68.815 188.682 68.4048L188.519 68.4741ZM188.766 69.7675C188.766 70.3699 188.625 70.8956 188.346 71.3475L188.497 71.4405C188.795 70.9573 188.943 70.3986 188.943 69.7675H188.766ZM188.346 71.3475C188.067 71.8007 187.681 72.1528 187.188 72.4044L187.268 72.5623C187.789 72.2965 188.2 71.9224 188.497 71.4405L188.346 71.3475ZM187.189 72.4038C186.695 72.6458 186.137 72.7678 185.512 72.7678V72.945C186.16 72.945 186.746 72.8182 187.267 72.5629L187.189 72.4038Z" fill="black" mask="url(#path-15-outside-1_286_550)"/>
</g>
<path d="M41.1633 80.7173C40.8511 80.7173 40.6376 80.6576 40.5228 80.5382C40.4172 80.4372 40.3644 80.35 40.3644 80.2765V80.1319C40.1394 80.5405 39.779 80.7448 39.2831 80.7448C38.7046 80.7448 38.3763 80.4831 38.2983 79.9597C38.2891 79.9046 38.2845 79.8495 38.2845 79.7944C38.2845 79.7347 38.2937 79.6704 38.3121 79.6016C38.3304 79.5327 38.3832 79.4569 38.4705 79.3743C38.6449 79.209 39.0283 79.108 39.6206 79.0713C39.7675 79.0575 39.903 79.0506 40.0269 79.0506C40.1509 79.0506 40.2634 79.0552 40.3644 79.0644V77.9211C40.3552 77.9165 40.3552 77.8959 40.3644 77.8591C40.3736 77.8178 40.3644 77.7673 40.3369 77.7076C40.3139 77.6433 40.2818 77.5814 40.2404 77.5217C40.1991 77.462 40.1257 77.4115 40.0201 77.3701C39.9145 77.3242 39.7767 77.3013 39.6068 77.3013C39.4369 77.3013 39.2372 77.3334 39.0077 77.3977C38.7827 77.4574 38.6174 77.5171 38.5118 77.5768L38.4842 77.5286C38.8929 77.3403 39.3084 77.2462 39.7308 77.2462C40.2037 77.2462 40.5159 77.3311 40.6674 77.501C40.7868 77.6342 40.8465 77.7742 40.8465 77.9211V80.2283C40.8465 80.3615 40.8718 80.4648 40.9223 80.5382C40.9774 80.6071 41.0325 80.6438 41.0876 80.6484L41.1633 80.6622H41.3768V80.7173H41.1633ZM39.3933 80.6897C39.6367 80.6897 39.8548 80.6071 40.0476 80.4418C40.245 80.2719 40.3506 80.1089 40.3644 79.9528V79.1195C40.2404 79.1103 40.1142 79.1057 39.9856 79.1057C39.8617 79.1057 39.7377 79.1126 39.6137 79.1264C39.2648 79.1677 39.0375 79.2457 38.9319 79.3605C38.8263 79.4753 38.7735 79.6337 38.7735 79.8357C38.7735 79.8725 38.7758 79.9138 38.7804 79.9597C38.8217 80.4464 39.026 80.6897 39.3933 80.6897ZM45.8261 77.5699V77.4252C45.6194 77.5079 45.4312 77.6755 45.2613 77.928C45.0914 78.1759 45.0019 78.4101 44.9927 78.6305V80.7173H44.5106V77.2737H44.9927V78.3688C45.0662 78.1025 45.2062 77.8522 45.4128 77.6181C45.6194 77.3793 45.8536 77.2554 46.1153 77.2462H46.1429C46.2347 77.2462 46.3105 77.2783 46.3701 77.3426C46.4344 77.4023 46.4666 77.478 46.4666 77.5699C46.4666 77.6617 46.4344 77.7375 46.3701 77.7971C46.3105 77.8568 46.2347 77.8867 46.1429 77.8867C46.051 77.8867 45.9753 77.8568 45.9156 77.7971C45.8559 77.7375 45.8261 77.6617 45.8261 77.5699ZM49.532 79.1195C49.532 78.5226 49.6767 78.0612 49.9659 77.7352C50.2552 77.4092 50.6891 77.2462 51.2676 77.2462C51.5385 77.2462 51.8117 77.3151 52.0871 77.4528V77.2737H52.5692V82.4391H52.0871V80.1181C51.9999 80.2788 51.8553 80.4211 51.6533 80.5451C51.4512 80.6691 51.2125 80.7311 50.937 80.7311C50.0003 80.7081 49.532 80.1709 49.532 79.1195ZM50.9439 80.676C51.2515 80.676 51.5155 80.5933 51.7359 80.428C51.9563 80.2627 52.0734 80.0997 52.0871 79.939V77.5148C51.7612 77.3724 51.4811 77.3013 51.2469 77.3013C50.8383 77.3013 50.5307 77.462 50.324 77.7834C50.1174 78.1002 50.0141 78.5455 50.0141 79.1195C50.0141 80.1571 50.324 80.676 50.9439 80.676ZM56.495 79.9253C56.495 80.288 56.5914 80.5199 56.7843 80.6209C56.8761 80.6668 56.9932 80.6897 57.1355 80.6897C57.4248 80.6897 57.6819 80.5795 57.9069 80.3592C58.1364 80.1388 58.2604 79.9344 58.2788 79.7462V77.2737H58.7609V80.2283C58.7609 80.3615 58.7861 80.4648 58.8366 80.5382C58.8917 80.6071 58.9468 80.6438 59.0019 80.6484L59.0777 80.6622H59.2912V80.7173H58.8711C58.6828 80.7173 58.5382 80.676 58.4372 80.5933C58.3407 80.5107 58.2902 80.428 58.2857 80.3454L58.2788 80.2283V79.9322C58.1961 80.1296 58.0492 80.3155 57.838 80.49C57.6268 80.6599 57.3949 80.7448 57.1424 80.7448C56.8945 80.7448 56.6901 80.7219 56.5294 80.676C56.3733 80.6255 56.2608 80.5566 56.192 80.4693C56.0726 80.327 56.0129 80.1434 56.0129 79.9184V77.2737H56.495V79.9253ZM63.0954 80.7173C62.9071 80.7173 62.7625 80.676 62.6615 80.5933C62.5651 80.5107 62.5146 80.428 62.51 80.3454L62.5031 80.2283V77.2737H62.9852V80.2283C62.9852 80.3615 63.0104 80.4648 63.061 80.5382C63.116 80.6071 63.1688 80.6438 63.2194 80.6484L63.302 80.6622H63.5155V80.7173H63.0954ZM62.5444 76.5024C62.4893 76.4473 62.4618 76.3784 62.4618 76.2958C62.4618 76.2131 62.4893 76.1442 62.5444 76.0891C62.5995 76.0295 62.6684 75.9996 62.751 75.9996C62.8337 75.9996 62.9025 76.0295 62.9576 76.0891C63.0173 76.1442 63.0472 76.2131 63.0472 76.2958C63.0472 76.3784 63.0173 76.4473 62.9576 76.5024C62.9025 76.5575 62.8337 76.585 62.751 76.585C62.6684 76.585 62.5995 76.5575 62.5444 76.5024ZM66.788 77.3288V77.2737H66.9326V76.585H67.4147V77.2737H68.4685V77.3288H67.4147V79.8357C67.4147 80.1342 67.4469 80.35 67.5112 80.4831C67.58 80.6163 67.7201 80.6828 67.9313 80.6828C68.1471 80.6828 68.3652 80.6392 68.5855 80.552L68.6062 80.6071C68.3766 80.6943 68.1126 80.7379 67.8142 80.7379C67.5203 80.7379 67.3 80.6783 67.153 80.5589C67.0061 80.4349 66.9326 80.1916 66.9326 79.8288V77.3288H66.788ZM72.1373 79.0368C72.1373 79.6062 72.236 80.024 72.4335 80.2903C72.6355 80.5566 72.8995 80.6897 73.2255 80.6897C73.6846 80.6897 74.0932 80.6209 74.4514 80.4831L74.472 80.5313C74.1047 80.6737 73.6892 80.7448 73.2255 80.7448C72.7663 80.7448 72.3921 80.6071 72.1029 80.3316C71.8136 80.0561 71.669 79.6314 71.669 79.0575C71.669 78.4836 71.8205 78.0382 72.1235 77.7214C72.4266 77.4046 72.8122 77.2462 73.2806 77.2462C73.6571 77.2462 73.9739 77.3587 74.231 77.5836C74.4881 77.8086 74.6167 78.1415 74.6167 78.5823C74.6167 78.6052 74.6167 78.6282 74.6167 78.6512H72.158C72.1442 78.7751 72.1373 78.9037 72.1373 79.0368ZM74.1483 78.5961C74.1438 78.1553 74.0588 77.8293 73.8935 77.6181C73.7282 77.4069 73.5147 77.3013 73.253 77.3013C72.9913 77.3013 72.7571 77.4161 72.5505 77.6456C72.3485 77.8752 72.22 78.192 72.1649 78.5961H74.1483ZM77.8262 77.3288V77.2737H77.9709V76.585H78.453V77.2737H79.5067V77.3288H78.453V79.8357C78.453 80.1342 78.4851 80.35 78.5494 80.4831C78.6182 80.6163 78.7583 80.6828 78.9695 80.6828C79.1853 80.6828 79.4034 80.6392 79.6238 80.552L79.6444 80.6071C79.4149 80.6943 79.1508 80.7379 78.8524 80.7379C78.5586 80.7379 78.3382 80.6783 78.1912 80.5589C78.0443 80.4349 77.9709 80.1916 77.9709 79.8288V77.3288H77.8262ZM83.3978 79.9253C83.3978 80.288 83.4942 80.5199 83.687 80.6209C83.7789 80.6668 83.896 80.6897 84.0383 80.6897C84.3275 80.6897 84.5847 80.5795 84.8096 80.3592C85.0392 80.1388 85.1632 79.9344 85.1816 79.7462V77.2737H85.6636V80.2283C85.6636 80.3615 85.6889 80.4648 85.7394 80.5382C85.7945 80.6071 85.8496 80.6438 85.9047 80.6484L85.9805 80.6622H86.194V80.7173H85.7738C85.5856 80.7173 85.441 80.676 85.34 80.5933C85.2435 80.5107 85.193 80.428 85.1884 80.3454L85.1816 80.2283V79.9322C85.0989 80.1296 84.952 80.3155 84.7408 80.49C84.5296 80.6599 84.2977 80.7448 84.0452 80.7448C83.7972 80.7448 83.5929 80.7219 83.4322 80.676C83.2761 80.6255 83.1636 80.5566 83.0948 80.4693C82.9754 80.327 82.9157 80.1434 82.9157 79.9184V77.2737H83.3978V79.9253ZM90.6111 77.5699V77.4252C90.4045 77.5079 90.2163 77.6755 90.0464 77.928C89.8765 78.1759 89.787 78.4101 89.7778 78.6305V80.7173H89.2957V77.2737H89.7778V78.3688C89.8512 78.1025 89.9913 77.8522 90.1979 77.6181C90.4045 77.3793 90.6387 77.2554 90.9004 77.2462H90.9279C91.0198 77.2462 91.0955 77.2783 91.1552 77.3426C91.2195 77.4023 91.2516 77.478 91.2516 77.5699C91.2516 77.6617 91.2195 77.7375 91.1552 77.7971C91.0955 77.8568 91.0198 77.8867 90.9279 77.8867C90.8361 77.8867 90.7603 77.8568 90.7007 77.7971C90.641 77.7375 90.6111 77.6617 90.6111 77.5699ZM97.1615 80.7173C96.8493 80.7173 96.6358 80.6576 96.521 80.5382C96.4154 80.4372 96.3626 80.35 96.3626 80.2765V80.1319C96.1376 80.5405 95.7772 80.7448 95.2813 80.7448C94.7028 80.7448 94.3745 80.4831 94.2964 79.9597C94.2872 79.9046 94.2827 79.8495 94.2827 79.7944C94.2827 79.7347 94.2918 79.6704 94.3102 79.6016C94.3286 79.5327 94.3814 79.4569 94.4686 79.3743C94.6431 79.209 95.0265 79.108 95.6188 79.0713C95.7657 79.0575 95.9011 79.0506 96.0251 79.0506C96.1491 79.0506 96.2616 79.0552 96.3626 79.0644V77.9211C96.3534 77.9165 96.3534 77.8959 96.3626 77.8591C96.3717 77.8178 96.3626 77.7673 96.335 77.7076C96.3121 77.6433 96.2799 77.5814 96.2386 77.5217C96.1973 77.462 96.1238 77.4115 96.0182 77.3701C95.9126 77.3242 95.7749 77.3013 95.605 77.3013C95.4351 77.3013 95.2354 77.3334 95.0058 77.3977C94.7808 77.4574 94.6155 77.5171 94.5099 77.5768L94.4824 77.5286C94.891 77.3403 95.3065 77.2462 95.7289 77.2462C96.2019 77.2462 96.5141 77.3311 96.6656 77.501C96.785 77.6342 96.8447 77.7742 96.8447 77.9211V80.2283C96.8447 80.3615 96.8699 80.4648 96.9204 80.5382C96.9755 80.6071 97.0306 80.6438 97.0857 80.6484L97.1615 80.6622H97.375V80.7173H97.1615ZM95.3915 80.6897C95.6348 80.6897 95.8529 80.6071 96.0458 80.4418C96.2432 80.2719 96.3488 80.1089 96.3626 79.9528V79.1195C96.2386 79.1103 96.1123 79.1057 95.9838 79.1057C95.8598 79.1057 95.7358 79.1126 95.6119 79.1264C95.2629 79.1677 95.0356 79.2457 94.93 79.3605C94.8244 79.4753 94.7716 79.6337 94.7716 79.8357C94.7716 79.8725 94.7739 79.9138 94.7785 79.9597C94.8199 80.4464 95.0242 80.6897 95.3915 80.6897ZM109.416 78.0175V77.9487H111.117V78.0175H110.739C110.491 78.6925 110.08 79.2985 109.506 79.8357C109.226 80.0974 108.897 80.3109 108.521 80.4762C108.144 80.6369 107.756 80.7173 107.357 80.7173C106.976 80.7173 106.627 80.6438 106.31 80.4969C106.127 80.4143 105.964 80.3086 105.821 80.1801C105.683 80.0469 105.569 79.8702 105.477 79.6498C105.385 79.4248 105.339 79.1677 105.339 78.8784C105.339 78.3137 105.511 77.8385 105.856 77.4528C106.205 77.0625 106.599 76.8674 107.04 76.8674C107.839 76.8674 108.252 77.2232 108.28 77.9349L109.423 77.0327L109.471 77.074L106.055 79.76C106.17 80.0355 106.333 80.2536 106.544 80.4143C106.76 80.5704 107.029 80.6484 107.35 80.6484C107.676 80.6484 108 80.5681 108.321 80.4074C108.647 80.2421 108.93 80.0286 109.168 79.7669C109.65 79.2343 109.99 78.6512 110.188 78.0175H109.416ZM107.736 78.3688C107.731 77.8454 107.678 77.4758 107.577 77.26C107.481 77.0442 107.316 76.9363 107.082 76.9363C106.852 76.9363 106.657 76.9982 106.496 77.1222C106.34 77.2416 106.218 77.4 106.131 77.5974C105.97 77.9785 105.89 78.394 105.89 78.844L105.904 79.147C105.927 79.3536 105.968 79.5419 106.028 79.7118L107.736 78.3688ZM119.928 80.7173C119.739 80.7173 119.595 80.676 119.494 80.5933C119.397 80.5107 119.347 80.428 119.342 80.3454L119.335 80.2283V77.2737H119.817V80.2283C119.817 80.3615 119.843 80.4648 119.893 80.5382C119.948 80.6071 120.001 80.6438 120.051 80.6484L120.134 80.6622H120.348V80.7173H119.928ZM119.377 76.5024C119.321 76.4473 119.294 76.3784 119.294 76.2958C119.294 76.2131 119.321 76.1442 119.377 76.0891C119.432 76.0295 119.501 75.9996 119.583 75.9996C119.666 75.9996 119.735 76.0295 119.79 76.0891C119.849 76.1442 119.879 76.2131 119.879 76.2958C119.879 76.3784 119.849 76.4473 119.79 76.5024C119.735 76.5575 119.666 76.585 119.583 76.585C119.501 76.585 119.432 76.5575 119.377 76.5024ZM126.378 80.7173C126.19 80.7173 126.045 80.676 125.944 80.5933C125.848 80.5107 125.797 80.428 125.793 80.3454L125.786 80.2283V78.0657C125.786 77.703 125.692 77.4712 125.504 77.3701C125.407 77.3242 125.288 77.3013 125.145 77.3013C124.852 77.3013 124.588 77.4184 124.353 77.6525C124.119 77.8821 124.002 78.0887 124.002 78.2724V80.7173H123.52V77.2737H124.002V78.0589C124.08 77.8614 124.225 77.6778 124.436 77.5079C124.647 77.3334 124.879 77.2462 125.132 77.2462C125.384 77.2462 125.588 77.2714 125.745 77.3219C125.905 77.3679 126.022 77.4344 126.096 77.5217C126.211 77.664 126.268 77.8477 126.268 78.0726V80.2283C126.268 80.3615 126.293 80.4648 126.344 80.5382C126.399 80.6071 126.454 80.6438 126.509 80.6484L126.585 80.6622H126.798V80.7173H126.378ZM129.866 77.3288V77.2737H130.01V76.585H130.492V77.2737H131.546V77.3288H130.492V79.8357C130.492 80.1342 130.524 80.35 130.589 80.4831C130.658 80.6163 130.798 80.6828 131.009 80.6828C131.225 80.6828 131.443 80.6392 131.663 80.552L131.684 80.6071C131.454 80.6943 131.19 80.7379 130.892 80.7379C130.598 80.7379 130.378 80.6783 130.231 80.5589C130.084 80.4349 130.01 80.1916 130.01 79.8288V77.3288H129.866ZM135.215 79.0368C135.215 79.6062 135.314 80.024 135.511 80.2903C135.713 80.5566 135.977 80.6897 136.303 80.6897C136.762 80.6897 137.171 80.6209 137.529 80.4831L137.55 80.5313C137.182 80.6737 136.767 80.7448 136.303 80.7448C135.844 80.7448 135.47 80.6071 135.18 80.3316C134.891 80.0561 134.747 79.6314 134.747 79.0575C134.747 78.4836 134.898 78.0382 135.201 77.7214C135.504 77.4046 135.89 77.2462 136.358 77.2462C136.735 77.2462 137.051 77.3587 137.309 77.5836C137.566 77.8086 137.694 78.1415 137.694 78.5823C137.694 78.6052 137.694 78.6282 137.694 78.6512H135.236C135.222 78.7751 135.215 78.9037 135.215 79.0368ZM137.226 78.5961C137.221 78.1553 137.136 77.8293 136.971 77.6181C136.806 77.4069 136.592 77.3013 136.331 77.3013C136.069 77.3013 135.835 77.4161 135.628 77.6456C135.426 77.8752 135.298 78.192 135.242 78.5961H137.226ZM142.045 77.5699V77.4252C141.839 77.5079 141.65 77.6755 141.48 77.928C141.311 78.1759 141.221 78.4101 141.212 78.6305V80.7173H140.73V77.2737H141.212V78.3688C141.285 78.1025 141.425 77.8522 141.632 77.6181C141.839 77.3793 142.073 77.2554 142.334 77.2462H142.362C142.454 77.2462 142.53 77.2783 142.589 77.3426C142.654 77.4023 142.686 77.478 142.686 77.5699C142.686 77.6617 142.654 77.7375 142.589 77.7971C142.53 77.8568 142.454 77.8867 142.362 77.8867C142.27 77.8867 142.194 77.8568 142.135 77.7971C142.075 77.7375 142.045 77.6617 142.045 77.5699ZM146.662 80.7173C146.474 80.7173 146.329 80.676 146.228 80.5933C146.132 80.5107 146.081 80.428 146.077 80.3454L146.07 80.2283V77.2737H146.552V80.2283C146.552 80.3615 146.577 80.4648 146.628 80.5382C146.683 80.6071 146.736 80.6438 146.786 80.6484L146.869 80.6622H147.082V80.7173H146.662ZM146.111 76.5024C146.056 76.4473 146.029 76.3784 146.029 76.2958C146.029 76.2131 146.056 76.1442 146.111 76.0891C146.166 76.0295 146.235 75.9996 146.318 75.9996C146.4 75.9996 146.469 76.0295 146.524 76.0891C146.584 76.1442 146.614 76.2131 146.614 76.2958C146.614 76.3784 146.584 76.4473 146.524 76.5024C146.469 76.5575 146.4 76.585 146.318 76.585C146.235 76.585 146.166 76.5575 146.111 76.5024ZM151.678 80.7448C151.196 80.7448 150.804 80.6071 150.501 80.3316C150.198 80.0561 150.046 79.6314 150.046 79.0575C150.046 78.4836 150.202 78.0382 150.515 77.7214C150.831 77.4046 151.231 77.2462 151.713 77.2462C152.2 77.2462 152.594 77.3839 152.897 77.6594C153.201 77.9349 153.352 78.3596 153.352 78.9335C153.352 79.5074 153.194 79.9528 152.877 80.2696C152.565 80.5864 152.165 80.7448 151.678 80.7448ZM151.727 77.3013C151.378 77.3013 151.088 77.4574 150.859 77.7696C150.629 78.0772 150.515 78.5088 150.515 79.0644C150.515 79.6153 150.62 80.024 150.831 80.2903C151.043 80.5566 151.323 80.6897 151.672 80.6897C152.021 80.6897 152.31 80.5359 152.539 80.2283C152.769 79.9161 152.884 79.4845 152.884 78.9335C152.884 78.378 152.778 77.967 152.567 77.7007C152.356 77.4344 152.076 77.3013 151.727 77.3013ZM157.836 77.5699V77.4252C157.629 77.5079 157.441 77.6755 157.271 77.928C157.101 78.1759 157.012 78.4101 157.002 78.6305V80.7173H156.52V77.2737H157.002V78.3688C157.076 78.1025 157.216 77.8522 157.423 77.6181C157.629 77.3793 157.863 77.2554 158.125 77.2462H158.153C158.244 77.2462 158.32 77.2783 158.38 77.3426C158.444 77.4023 158.476 77.478 158.476 77.5699C158.476 77.6617 158.444 77.7375 158.38 77.7971C158.32 77.8568 158.244 77.8867 158.153 77.8867C158.061 77.8867 157.985 77.8568 157.925 77.7971C157.866 77.7375 157.836 77.6617 157.836 77.5699ZM162.01 79.0368C162.01 79.6062 162.109 80.024 162.306 80.2903C162.508 80.5566 162.772 80.6897 163.098 80.6897C163.557 80.6897 163.966 80.6209 164.324 80.4831L164.345 80.5313C163.978 80.6737 163.562 80.7448 163.098 80.7448C162.639 80.7448 162.265 80.6071 161.976 80.3316C161.686 80.0561 161.542 79.6314 161.542 79.0575C161.542 78.4836 161.693 78.0382 161.996 77.7214C162.299 77.4046 162.685 77.2462 163.153 77.2462C163.53 77.2462 163.847 77.3587 164.104 77.5836C164.361 77.8086 164.489 78.1415 164.489 78.5823C164.489 78.6052 164.489 78.6282 164.489 78.6512H162.031C162.017 78.7751 162.01 78.9037 162.01 79.0368ZM164.021 78.5961C164.017 78.1553 163.932 77.8293 163.766 77.6181C163.601 77.4069 163.388 77.3013 163.126 77.3013C162.864 77.3013 162.63 77.4161 162.423 77.6456C162.221 77.8752 162.093 78.192 162.038 78.5961H164.021ZM169.744 77.5148C169.671 77.4551 169.552 77.4046 169.386 77.3633C169.226 77.3219 169.104 77.3013 169.021 77.3013C168.939 77.3013 168.89 77.3013 168.877 77.3013C168.629 77.3059 168.45 77.3701 168.34 77.4941C168.229 77.6135 168.174 77.7489 168.174 77.9005C168.174 78.052 168.222 78.1805 168.319 78.2861C168.415 78.3871 168.535 78.4675 168.677 78.5272C168.824 78.5823 168.98 78.6466 169.145 78.72C169.315 78.7935 169.471 78.8692 169.614 78.9473C169.761 79.0208 169.882 79.131 169.979 79.2779C170.075 79.4202 170.123 79.5993 170.123 79.8151C170.123 80.0309 170.048 80.2145 169.896 80.366C169.744 80.5176 169.575 80.6186 169.386 80.6691C169.203 80.7196 169.003 80.7448 168.787 80.7448C168.319 80.7448 167.968 80.6415 167.733 80.4349L167.775 80.3936C167.867 80.4808 168.002 80.552 168.181 80.6071C168.365 80.6622 168.542 80.6897 168.711 80.6897C168.982 80.6897 169.205 80.6163 169.379 80.4693C169.559 80.3178 169.648 80.1319 169.648 79.9115C169.648 79.6865 169.582 79.5074 169.448 79.3743C169.315 79.2366 169.152 79.131 168.959 79.0575C168.771 78.9794 168.581 78.9037 168.388 78.8302C168.195 78.7522 168.032 78.6466 167.899 78.5134C167.766 78.3757 167.699 78.2173 167.699 78.0382C167.699 77.8591 167.74 77.7145 167.823 77.6043C167.906 77.4895 168.016 77.4092 168.154 77.3633C168.388 77.2852 168.622 77.2462 168.856 77.2462C169.251 77.2462 169.559 77.3196 169.779 77.4666L169.744 77.5148Z" fill="black"/>
<path d="M41.1633 80.7173C40.8511 80.7173 40.6376 80.6576 40.5228 80.5382C40.4172 80.4372 40.3644 80.35 40.3644 80.2765V80.1319C40.1394 80.5405 39.779 80.7448 39.2831 80.7448C38.7046 80.7448 38.3763 80.4831 38.2983 79.9597C38.2891 79.9046 38.2845 79.8495 38.2845 79.7944C38.2845 79.7347 38.2937 79.6704 38.3121 79.6016C38.3304 79.5327 38.3832 79.4569 38.4705 79.3743C38.6449 79.209 39.0283 79.108 39.6206 79.0713C39.7675 79.0575 39.903 79.0506 40.0269 79.0506C40.1509 79.0506 40.2634 79.0552 40.3644 79.0644V77.9211C40.3552 77.9165 40.3552 77.8959 40.3644 77.8591C40.3736 77.8178 40.3644 77.7673 40.3369 77.7076C40.3139 77.6433 40.2818 77.5814 40.2404 77.5217C40.1991 77.462 40.1257 77.4115 40.0201 77.3701C39.9145 77.3242 39.7767 77.3013 39.6068 77.3013C39.4369 77.3013 39.2372 77.3334 39.0077 77.3977C38.7827 77.4574 38.6174 77.5171 38.5118 77.5768L38.4842 77.5286C38.8929 77.3403 39.3084 77.2462 39.7308 77.2462C40.2037 77.2462 40.5159 77.3311 40.6674 77.501C40.7868 77.6342 40.8465 77.7742 40.8465 77.9211V80.2283C40.8465 80.3615 40.8718 80.4648 40.9223 80.5382C40.9774 80.6071 41.0325 80.6438 41.0876 80.6484L41.1633 80.6622H41.3768V80.7173H41.1633ZM39.3933 80.6897C39.6367 80.6897 39.8548 80.6071 40.0476 80.4418C40.245 80.2719 40.3506 80.1089 40.3644 79.9528V79.1195C40.2404 79.1103 40.1142 79.1057 39.9856 79.1057C39.8617 79.1057 39.7377 79.1126 39.6137 79.1264C39.2648 79.1677 39.0375 79.2457 38.9319 79.3605C38.8263 79.4753 38.7735 79.6337 38.7735 79.8357C38.7735 79.8725 38.7758 79.9138 38.7804 79.9597C38.8217 80.4464 39.026 80.6897 39.3933 80.6897ZM45.8261 77.5699V77.4252C45.6194 77.5079 45.4312 77.6755 45.2613 77.928C45.0914 78.1759 45.0019 78.4101 44.9927 78.6305V80.7173H44.5106V77.2737H44.9927V78.3688C45.0662 78.1025 45.2062 77.8522 45.4128 77.6181C45.6194 77.3793 45.8536 77.2554 46.1153 77.2462H46.1429C46.2347 77.2462 46.3105 77.2783 46.3701 77.3426C46.4344 77.4023 46.4666 77.478 46.4666 77.5699C46.4666 77.6617 46.4344 77.7375 46.3701 77.7971C46.3105 77.8568 46.2347 77.8867 46.1429 77.8867C46.051 77.8867 45.9753 77.8568 45.9156 77.7971C45.8559 77.7375 45.8261 77.6617 45.8261 77.5699ZM49.532 79.1195C49.532 78.5226 49.6767 78.0612 49.9659 77.7352C50.2552 77.4092 50.6891 77.2462 51.2676 77.2462C51.5385 77.2462 51.8117 77.3151 52.0871 77.4528V77.2737H52.5692V82.4391H52.0871V80.1181C51.9999 80.2788 51.8553 80.4211 51.6533 80.5451C51.4512 80.6691 51.2125 80.7311 50.937 80.7311C50.0003 80.7081 49.532 80.1709 49.532 79.1195ZM50.9439 80.676C51.2515 80.676 51.5155 80.5933 51.7359 80.428C51.9563 80.2627 52.0734 80.0997 52.0871 79.939V77.5148C51.7612 77.3724 51.4811 77.3013 51.2469 77.3013C50.8383 77.3013 50.5307 77.462 50.324 77.7834C50.1174 78.1002 50.0141 78.5455 50.0141 79.1195C50.0141 80.1571 50.324 80.676 50.9439 80.676ZM56.495 79.9253C56.495 80.288 56.5914 80.5199 56.7843 80.6209C56.8761 80.6668 56.9932 80.6897 57.1355 80.6897C57.4248 80.6897 57.6819 80.5795 57.9069 80.3592C58.1364 80.1388 58.2604 79.9344 58.2788 79.7462V77.2737H58.7609V80.2283C58.7609 80.3615 58.7861 80.4648 58.8366 80.5382C58.8917 80.6071 58.9468 80.6438 59.0019 80.6484L59.0777 80.6622H59.2912V80.7173H58.8711C58.6828 80.7173 58.5382 80.676 58.4372 80.5933C58.3407 80.5107 58.2902 80.428 58.2857 80.3454L58.2788 80.2283V79.9322C58.1961 80.1296 58.0492 80.3155 57.838 80.49C57.6268 80.6599 57.3949 80.7448 57.1424 80.7448C56.8945 80.7448 56.6901 80.7219 56.5294 80.676C56.3733 80.6255 56.2608 80.5566 56.192 80.4693C56.0726 80.327 56.0129 80.1434 56.0129 79.9184V77.2737H56.495V79.9253ZM63.0954 80.7173C62.9071 80.7173 62.7625 80.676 62.6615 80.5933C62.5651 80.5107 62.5146 80.428 62.51 80.3454L62.5031 80.2283V77.2737H62.9852V80.2283C62.9852 80.3615 63.0104 80.4648 63.061 80.5382C63.116 80.6071 63.1688 80.6438 63.2194 80.6484L63.302 80.6622H63.5155V80.7173H63.0954ZM62.5444 76.5024C62.4893 76.4473 62.4618 76.3784 62.4618 76.2958C62.4618 76.2131 62.4893 76.1442 62.5444 76.0891C62.5995 76.0295 62.6684 75.9996 62.751 75.9996C62.8337 75.9996 62.9025 76.0295 62.9576 76.0891C63.0173 76.1442 63.0472 76.2131 63.0472 76.2958C63.0472 76.3784 63.0173 76.4473 62.9576 76.5024C62.9025 76.5575 62.8337 76.585 62.751 76.585C62.6684 76.585 62.5995 76.5575 62.5444 76.5024ZM66.788 77.3288V77.2737H66.9326V76.585H67.4147V77.2737H68.4685V77.3288H67.4147V79.8357C67.4147 80.1342 67.4469 80.35 67.5112 80.4831C67.58 80.6163 67.7201 80.6828 67.9313 80.6828C68.1471 80.6828 68.3652 80.6392 68.5855 80.552L68.6062 80.6071C68.3766 80.6943 68.1126 80.7379 67.8142 80.7379C67.5203 80.7379 67.3 80.6783 67.153 80.5589C67.0061 80.4349 66.9326 80.1916 66.9326 79.8288V77.3288H66.788ZM72.1373 79.0368C72.1373 79.6062 72.236 80.024 72.4335 80.2903C72.6355 80.5566 72.8995 80.6897 73.2255 80.6897C73.6846 80.6897 74.0932 80.6209 74.4514 80.4831L74.472 80.5313C74.1047 80.6737 73.6892 80.7448 73.2255 80.7448C72.7663 80.7448 72.3921 80.6071 72.1029 80.3316C71.8136 80.0561 71.669 79.6314 71.669 79.0575C71.669 78.4836 71.8205 78.0382 72.1235 77.7214C72.4266 77.4046 72.8122 77.2462 73.2806 77.2462C73.6571 77.2462 73.9739 77.3587 74.231 77.5836C74.4881 77.8086 74.6167 78.1415 74.6167 78.5823C74.6167 78.6052 74.6167 78.6282 74.6167 78.6512H72.158C72.1442 78.7751 72.1373 78.9037 72.1373 79.0368ZM74.1483 78.5961C74.1438 78.1553 74.0588 77.8293 73.8935 77.6181C73.7282 77.4069 73.5147 77.3013 73.253 77.3013C72.9913 77.3013 72.7571 77.4161 72.5505 77.6456C72.3485 77.8752 72.22 78.192 72.1649 78.5961H74.1483ZM77.8262 77.3288V77.2737H77.9709V76.585H78.453V77.2737H79.5067V77.3288H78.453V79.8357C78.453 80.1342 78.4851 80.35 78.5494 80.4831C78.6182 80.6163 78.7583 80.6828 78.9695 80.6828C79.1853 80.6828 79.4034 80.6392 79.6238 80.552L79.6444 80.6071C79.4149 80.6943 79.1508 80.7379 78.8524 80.7379C78.5586 80.7379 78.3382 80.6783 78.1912 80.5589C78.0443 80.4349 77.9709 80.1916 77.9709 79.8288V77.3288H77.8262ZM83.3978 79.9253C83.3978 80.288 83.4942 80.5199 83.687 80.6209C83.7789 80.6668 83.896 80.6897 84.0383 80.6897C84.3275 80.6897 84.5847 80.5795 84.8096 80.3592C85.0392 80.1388 85.1632 79.9344 85.1816 79.7462V77.2737H85.6636V80.2283C85.6636 80.3615 85.6889 80.4648 85.7394 80.5382C85.7945 80.6071 85.8496 80.6438 85.9047 80.6484L85.9805 80.6622H86.194V80.7173H85.7738C85.5856 80.7173 85.441 80.676 85.34 80.5933C85.2435 80.5107 85.193 80.428 85.1884 80.3454L85.1816 80.2283V79.9322C85.0989 80.1296 84.952 80.3155 84.7408 80.49C84.5296 80.6599 84.2977 80.7448 84.0452 80.7448C83.7972 80.7448 83.5929 80.7219 83.4322 80.676C83.2761 80.6255 83.1636 80.5566 83.0948 80.4693C82.9754 80.327 82.9157 80.1434 82.9157 79.9184V77.2737H83.3978V79.9253ZM90.6111 77.5699V77.4252C90.4045 77.5079 90.2163 77.6755 90.0464 77.928C89.8765 78.1759 89.787 78.4101 89.7778 78.6305V80.7173H89.2957V77.2737H89.7778V78.3688C89.8512 78.1025 89.9913 77.8522 90.1979 77.6181C90.4045 77.3793 90.6387 77.2554 90.9004 77.2462H90.9279C91.0198 77.2462 91.0955 77.2783 91.1552 77.3426C91.2195 77.4023 91.2516 77.478 91.2516 77.5699C91.2516 77.6617 91.2195 77.7375 91.1552 77.7971C91.0955 77.8568 91.0198 77.8867 90.9279 77.8867C90.8361 77.8867 90.7603 77.8568 90.7007 77.7971C90.641 77.7375 90.6111 77.6617 90.6111 77.5699ZM97.1615 80.7173C96.8493 80.7173 96.6358 80.6576 96.521 80.5382C96.4154 80.4372 96.3626 80.35 96.3626 80.2765V80.1319C96.1376 80.5405 95.7772 80.7448 95.2813 80.7448C94.7028 80.7448 94.3745 80.4831 94.2964 79.9597C94.2872 79.9046 94.2827 79.8495 94.2827 79.7944C94.2827 79.7347 94.2918 79.6704 94.3102 79.6016C94.3286 79.5327 94.3814 79.4569 94.4686 79.3743C94.6431 79.209 95.0265 79.108 95.6188 79.0713C95.7657 79.0575 95.9011 79.0506 96.0251 79.0506C96.1491 79.0506 96.2616 79.0552 96.3626 79.0644V77.9211C96.3534 77.9165 96.3534 77.8959 96.3626 77.8591C96.3717 77.8178 96.3626 77.7673 96.335 77.7076C96.3121 77.6433 96.2799 77.5814 96.2386 77.5217C96.1973 77.462 96.1238 77.4115 96.0182 77.3701C95.9126 77.3242 95.7749 77.3013 95.605 77.3013C95.4351 77.3013 95.2354 77.3334 95.0058 77.3977C94.7808 77.4574 94.6155 77.5171 94.5099 77.5768L94.4824 77.5286C94.891 77.3403 95.3065 77.2462 95.7289 77.2462C96.2019 77.2462 96.5141 77.3311 96.6656 77.501C96.785 77.6342 96.8447 77.7742 96.8447 77.9211V80.2283C96.8447 80.3615 96.8699 80.4648 96.9204 80.5382C96.9755 80.6071 97.0306 80.6438 97.0857 80.6484L97.1615 80.6622H97.375V80.7173H97.1615ZM95.3915 80.6897C95.6348 80.6897 95.8529 80.6071 96.0458 80.4418C96.2432 80.2719 96.3488 80.1089 96.3626 79.9528V79.1195C96.2386 79.1103 96.1123 79.1057 95.9838 79.1057C95.8598 79.1057 95.7358 79.1126 95.6119 79.1264C95.2629 79.1677 95.0356 79.2457 94.93 79.3605C94.8244 79.4753 94.7716 79.6337 94.7716 79.8357C94.7716 79.8725 94.7739 79.9138 94.7785 79.9597C94.8199 80.4464 95.0242 80.6897 95.3915 80.6897ZM109.416 78.0175V77.9487H111.117V78.0175H110.739C110.491 78.6925 110.08 79.2985 109.506 79.8357C109.226 80.0974 108.897 80.3109 108.521 80.4762C108.144 80.6369 107.756 80.7173 107.357 80.7173C106.976 80.7173 106.627 80.6438 106.31 80.4969C106.127 80.4143 105.964 80.3086 105.821 80.1801C105.683 80.0469 105.569 79.8702 105.477 79.6498C105.385 79.4248 105.339 79.1677 105.339 78.8784C105.339 78.3137 105.511 77.8385 105.856 77.4528C106.205 77.0625 106.599 76.8674 107.04 76.8674C107.839 76.8674 108.252 77.2232 108.28 77.9349L109.423 77.0327L109.471 77.074L106.055 79.76C106.17 80.0355 106.333 80.2536 106.544 80.4143C106.76 80.5704 107.029 80.6484 107.35 80.6484C107.676 80.6484 108 80.5681 108.321 80.4074C108.647 80.2421 108.93 80.0286 109.168 79.7669C109.65 79.2343 109.99 78.6512 110.188 78.0175H109.416ZM107.736 78.3688C107.731 77.8454 107.678 77.4758 107.577 77.26C107.481 77.0442 107.316 76.9363 107.082 76.9363C106.852 76.9363 106.657 76.9982 106.496 77.1222C106.34 77.2416 106.218 77.4 106.131 77.5974C105.97 77.9785 105.89 78.394 105.89 78.844L105.904 79.147C105.927 79.3536 105.968 79.5419 106.028 79.7118L107.736 78.3688ZM119.928 80.7173C119.739 80.7173 119.595 80.676 119.494 80.5933C119.397 80.5107 119.347 80.428 119.342 80.3454L119.335 80.2283V77.2737H119.817V80.2283C119.817 80.3615 119.843 80.4648 119.893 80.5382C119.948 80.6071 120.001 80.6438 120.051 80.6484L120.134 80.6622H120.348V80.7173H119.928ZM119.377 76.5024C119.321 76.4473 119.294 76.3784 119.294 76.2958C119.294 76.2131 119.321 76.1442 119.377 76.0891C119.432 76.0295 119.501 75.9996 119.583 75.9996C119.666 75.9996 119.735 76.0295 119.79 76.0891C119.849 76.1442 119.879 76.2131 119.879 76.2958C119.879 76.3784 119.849 76.4473 119.79 76.5024C119.735 76.5575 119.666 76.585 119.583 76.585C119.501 76.585 119.432 76.5575 119.377 76.5024ZM126.378 80.7173C126.19 80.7173 126.045 80.676 125.944 80.5933C125.848 80.5107 125.797 80.428 125.793 80.3454L125.786 80.2283V78.0657C125.786 77.703 125.692 77.4712 125.504 77.3701C125.407 77.3242 125.288 77.3013 125.145 77.3013C124.852 77.3013 124.588 77.4184 124.353 77.6525C124.119 77.8821 124.002 78.0887 124.002 78.2724V80.7173H123.52V77.2737H124.002V78.0589C124.08 77.8614 124.225 77.6778 124.436 77.5079C124.647 77.3334 124.879 77.2462 125.132 77.2462C125.384 77.2462 125.588 77.2714 125.745 77.3219C125.905 77.3679 126.022 77.4344 126.096 77.5217C126.211 77.664 126.268 77.8477 126.268 78.0726V80.2283C126.268 80.3615 126.293 80.4648 126.344 80.5382C126.399 80.6071 126.454 80.6438 126.509 80.6484L126.585 80.6622H126.798V80.7173H126.378ZM129.866 77.3288V77.2737H130.01V76.585H130.492V77.2737H131.546V77.3288H130.492V79.8357C130.492 80.1342 130.524 80.35 130.589 80.4831C130.658 80.6163 130.798 80.6828 131.009 80.6828C131.225 80.6828 131.443 80.6392 131.663 80.552L131.684 80.6071C131.454 80.6943 131.19 80.7379 130.892 80.7379C130.598 80.7379 130.378 80.6783 130.231 80.5589C130.084 80.4349 130.01 80.1916 130.01 79.8288V77.3288H129.866ZM135.215 79.0368C135.215 79.6062 135.314 80.024 135.511 80.2903C135.713 80.5566 135.977 80.6897 136.303 80.6897C136.762 80.6897 137.171 80.6209 137.529 80.4831L137.55 80.5313C137.182 80.6737 136.767 80.7448 136.303 80.7448C135.844 80.7448 135.47 80.6071 135.18 80.3316C134.891 80.0561 134.747 79.6314 134.747 79.0575C134.747 78.4836 134.898 78.0382 135.201 77.7214C135.504 77.4046 135.89 77.2462 136.358 77.2462C136.735 77.2462 137.051 77.3587 137.309 77.5836C137.566 77.8086 137.694 78.1415 137.694 78.5823C137.694 78.6052 137.694 78.6282 137.694 78.6512H135.236C135.222 78.7751 135.215 78.9037 135.215 79.0368ZM137.226 78.5961C137.221 78.1553 137.136 77.8293 136.971 77.6181C136.806 77.4069 136.592 77.3013 136.331 77.3013C136.069 77.3013 135.835 77.4161 135.628 77.6456C135.426 77.8752 135.298 78.192 135.242 78.5961H137.226ZM142.045 77.5699V77.4252C141.839 77.5079 141.65 77.6755 141.48 77.928C141.311 78.1759 141.221 78.4101 141.212 78.6305V80.7173H140.73V77.2737H141.212V78.3688C141.285 78.1025 141.425 77.8522 141.632 77.6181C141.839 77.3793 142.073 77.2554 142.334 77.2462H142.362C142.454 77.2462 142.53 77.2783 142.589 77.3426C142.654 77.4023 142.686 77.478 142.686 77.5699C142.686 77.6617 142.654 77.7375 142.589 77.7971C142.53 77.8568 142.454 77.8867 142.362 77.8867C142.27 77.8867 142.194 77.8568 142.135 77.7971C142.075 77.7375 142.045 77.6617 142.045 77.5699ZM146.662 80.7173C146.474 80.7173 146.329 80.676 146.228 80.5933C146.132 80.5107 146.081 80.428 146.077 80.3454L146.07 80.2283V77.2737H146.552V80.2283C146.552 80.3615 146.577 80.4648 146.628 80.5382C146.683 80.6071 146.736 80.6438 146.786 80.6484L146.869 80.6622H147.082V80.7173H146.662ZM146.111 76.5024C146.056 76.4473 146.029 76.3784 146.029 76.2958C146.029 76.2131 146.056 76.1442 146.111 76.0891C146.166 76.0295 146.235 75.9996 146.318 75.9996C146.4 75.9996 146.469 76.0295 146.524 76.0891C146.584 76.1442 146.614 76.2131 146.614 76.2958C146.614 76.3784 146.584 76.4473 146.524 76.5024C146.469 76.5575 146.4 76.585 146.318 76.585C146.235 76.585 146.166 76.5575 146.111 76.5024ZM151.678 80.7448C151.196 80.7448 150.804 80.6071 150.501 80.3316C150.198 80.0561 150.046 79.6314 150.046 79.0575C150.046 78.4836 150.202 78.0382 150.515 77.7214C150.831 77.4046 151.231 77.2462 151.713 77.2462C152.2 77.2462 152.594 77.3839 152.897 77.6594C153.201 77.9349 153.352 78.3596 153.352 78.9335C153.352 79.5074 153.194 79.9528 152.877 80.2696C152.565 80.5864 152.165 80.7448 151.678 80.7448ZM151.727 77.3013C151.378 77.3013 151.088 77.4574 150.859 77.7696C150.629 78.0772 150.515 78.5088 150.515 79.0644C150.515 79.6153 150.62 80.024 150.831 80.2903C151.043 80.5566 151.323 80.6897 151.672 80.6897C152.021 80.6897 152.31 80.5359 152.539 80.2283C152.769 79.9161 152.884 79.4845 152.884 78.9335C152.884 78.378 152.778 77.967 152.567 77.7007C152.356 77.4344 152.076 77.3013 151.727 77.3013ZM157.836 77.5699V77.4252C157.629 77.5079 157.441 77.6755 157.271 77.928C157.101 78.1759 157.012 78.4101 157.002 78.6305V80.7173H156.52V77.2737H157.002V78.3688C157.076 78.1025 157.216 77.8522 157.423 77.6181C157.629 77.3793 157.863 77.2554 158.125 77.2462H158.153C158.244 77.2462 158.32 77.2783 158.38 77.3426C158.444 77.4023 158.476 77.478 158.476 77.5699C158.476 77.6617 158.444 77.7375 158.38 77.7971C158.32 77.8568 158.244 77.8867 158.153 77.8867C158.061 77.8867 157.985 77.8568 157.925 77.7971C157.866 77.7375 157.836 77.6617 157.836 77.5699ZM162.01 79.0368C162.01 79.6062 162.109 80.024 162.306 80.2903C162.508 80.5566 162.772 80.6897 163.098 80.6897C163.557 80.6897 163.966 80.6209 164.324 80.4831L164.345 80.5313C163.978 80.6737 163.562 80.7448 163.098 80.7448C162.639 80.7448 162.265 80.6071 161.976 80.3316C161.686 80.0561 161.542 79.6314 161.542 79.0575C161.542 78.4836 161.693 78.0382 161.996 77.7214C162.299 77.4046 162.685 77.2462 163.153 77.2462C163.53 77.2462 163.847 77.3587 164.104 77.5836C164.361 77.8086 164.489 78.1415 164.489 78.5823C164.489 78.6052 164.489 78.6282 164.489 78.6512H162.031C162.017 78.7751 162.01 78.9037 162.01 79.0368ZM164.021 78.5961C164.017 78.1553 163.932 77.8293 163.766 77.6181C163.601 77.4069 163.388 77.3013 163.126 77.3013C162.864 77.3013 162.63 77.4161 162.423 77.6456C162.221 77.8752 162.093 78.192 162.038 78.5961H164.021ZM169.744 77.5148C169.671 77.4551 169.552 77.4046 169.386 77.3633C169.226 77.3219 169.104 77.3013 169.021 77.3013C168.939 77.3013 168.89 77.3013 168.877 77.3013C168.629 77.3059 168.45 77.3701 168.34 77.4941C168.229 77.6135 168.174 77.7489 168.174 77.9005C168.174 78.052 168.222 78.1805 168.319 78.2861C168.415 78.3871 168.535 78.4675 168.677 78.5272C168.824 78.5823 168.98 78.6466 169.145 78.72C169.315 78.7935 169.471 78.8692 169.614 78.9473C169.761 79.0208 169.882 79.131 169.979 79.2779C170.075 79.4202 170.123 79.5993 170.123 79.8151C170.123 80.0309 170.048 80.2145 169.896 80.366C169.744 80.5176 169.575 80.6186 169.386 80.6691C169.203 80.7196 169.003 80.7448 168.787 80.7448C168.319 80.7448 167.968 80.6415 167.733 80.4349L167.775 80.3936C167.867 80.4808 168.002 80.552 168.181 80.6071C168.365 80.6622 168.542 80.6897 168.711 80.6897C168.982 80.6897 169.205 80.6163 169.379 80.4693C169.559 80.3178 169.648 80.1319 169.648 79.9115C169.648 79.6865 169.582 79.5074 169.448 79.3743C169.315 79.2366 169.152 79.131 168.959 79.0575C168.771 78.9794 168.581 78.9037 168.388 78.8302C168.195 78.7522 168.032 78.6466 167.899 78.5134C167.766 78.3757 167.699 78.2173 167.699 78.0382C167.699 77.8591 167.74 77.7145 167.823 77.6043C167.906 77.4895 168.016 77.4092 168.154 77.3633C168.388 77.2852 168.622 77.2462 168.856 77.2462C169.251 77.2462 169.559 77.3196 169.779 77.4666L169.744 77.5148Z" fill="black"/>
<path d="M41.1384 80.7114C40.8262 80.7114 40.6127 80.6517 40.4979 80.5324C40.3923 80.4313 40.3395 80.3441 40.3395 80.2707V80.126C40.1145 80.5347 39.7541 80.739 39.2582 80.739C38.6797 80.739 38.3514 80.4773 38.2734 79.9538C38.2642 79.8987 38.2596 79.8436 38.2596 79.7886C38.2596 79.7289 38.2688 79.6646 38.2872 79.5957C38.3055 79.5268 38.3583 79.4511 38.4456 79.3684C38.62 79.2031 39.0034 79.1021 39.5957 79.0654C39.7426 79.0516 39.8781 79.0447 40.002 79.0447C40.126 79.0447 40.2385 79.0493 40.3395 79.0585V77.9153C40.3303 77.9107 40.3303 77.89 40.3395 77.8533C40.3487 77.812 40.3395 77.7614 40.312 77.7018C40.289 77.6375 40.2569 77.5755 40.2155 77.5158C40.1742 77.4561 40.1008 77.4056 39.9952 77.3643C39.8896 77.3184 39.7518 77.2954 39.5819 77.2954C39.412 77.2954 39.2123 77.3276 38.9828 77.3918C38.7578 77.4515 38.5925 77.5112 38.4869 77.5709L38.4593 77.5227C38.868 77.3344 39.2835 77.2403 39.7059 77.2403C40.1788 77.2403 40.491 77.3253 40.6425 77.4951C40.7619 77.6283 40.8216 77.7683 40.8216 77.9153V80.2224C40.8216 80.3556 40.8469 80.4589 40.8974 80.5324C40.9525 80.6012 41.0076 80.638 41.0627 80.6426L41.1384 80.6563H41.3519V80.7114H41.1384ZM39.3684 80.6839C39.6118 80.6839 39.8299 80.6012 40.0227 80.4359C40.2201 80.2661 40.3257 80.1031 40.3395 79.947V79.1136C40.2155 79.1044 40.0893 79.0998 39.9607 79.0998C39.8368 79.0998 39.7128 79.1067 39.5888 79.1205C39.2399 79.1618 39.0126 79.2399 38.907 79.3547C38.8014 79.4694 38.7486 79.6279 38.7486 79.8299C38.7486 79.8666 38.7509 79.9079 38.7555 79.9538C38.7968 80.4405 39.0011 80.6839 39.3684 80.6839ZM45.8012 77.564V77.4194C45.5945 77.502 45.4063 77.6696 45.2364 77.9221C45.0665 78.1701 44.977 78.4042 44.9678 78.6246V80.7114H44.4857V77.2679H44.9678V78.3629C45.0413 78.0966 45.1813 77.8464 45.3879 77.6122C45.5945 77.3735 45.8287 77.2495 46.0904 77.2403H46.118C46.2098 77.2403 46.2855 77.2725 46.3452 77.3367C46.4095 77.3964 46.4417 77.4722 46.4417 77.564C46.4417 77.6558 46.4095 77.7316 46.3452 77.7913C46.2855 77.851 46.2098 77.8808 46.118 77.8808C46.0261 77.8808 45.9504 77.851 45.8907 77.7913C45.831 77.7316 45.8012 77.6558 45.8012 77.564ZM49.5071 79.1136C49.5071 78.5167 49.6518 78.0553 49.941 77.7293C50.2303 77.4033 50.6642 77.2403 51.2427 77.2403C51.5136 77.2403 51.7868 77.3092 52.0622 77.4469V77.2679H52.5443V82.4332H52.0622V80.1122C51.975 80.2729 51.8304 80.4153 51.6284 80.5392C51.4263 80.6632 51.1876 80.7252 50.9121 80.7252C49.9754 80.7022 49.5071 80.165 49.5071 79.1136ZM50.919 80.6701C51.2266 80.6701 51.4906 80.5875 51.711 80.4222C51.9314 80.2569 52.0485 80.0939 52.0622 79.9332V77.5089C51.7362 77.3666 51.4562 77.2954 51.222 77.2954C50.8134 77.2954 50.5058 77.4561 50.2991 77.7775C50.0925 78.0943 49.9892 78.5397 49.9892 79.1136C49.9892 80.1513 50.2991 80.6701 50.919 80.6701ZM56.4701 79.9194C56.4701 80.2821 56.5665 80.514 56.7594 80.615C56.8512 80.6609 56.9683 80.6839 57.1106 80.6839C57.3999 80.6839 57.657 80.5737 57.882 80.3533C58.1115 80.1329 58.2355 79.9286 58.2539 79.7403V77.2679H58.736V80.2224C58.736 80.3556 58.7612 80.4589 58.8117 80.5324C58.8668 80.6012 58.9219 80.638 58.977 80.6426L59.0528 80.6563H59.2663V80.7114H58.8462C58.6579 80.7114 58.5133 80.6701 58.4123 80.5875C58.3158 80.5048 58.2653 80.4222 58.2607 80.3395L58.2539 80.2224V79.9263C58.1712 80.1237 58.0243 80.3097 57.8131 80.4842C57.6019 80.654 57.37 80.739 57.1175 80.739C56.8696 80.739 56.6652 80.716 56.5045 80.6701C56.3484 80.6196 56.2359 80.5507 56.1671 80.4635C56.0477 80.3212 55.988 80.1375 55.988 79.9125V77.2679H56.4701V79.9194ZM63.0705 80.7114C62.8822 80.7114 62.7376 80.6701 62.6366 80.5875C62.5402 80.5048 62.4897 80.4222 62.4851 80.3395L62.4782 80.2224V77.2679H62.9603V80.2224C62.9603 80.3556 62.9855 80.4589 63.036 80.5324C63.0911 80.6012 63.1439 80.638 63.1945 80.6426L63.2771 80.6563H63.4906V80.7114H63.0705ZM62.5195 76.4965C62.4644 76.4414 62.4369 76.3725 62.4369 76.2899C62.4369 76.2073 62.4644 76.1384 62.5195 76.0833C62.5746 76.0236 62.6435 75.9938 62.7261 75.9938C62.8088 75.9938 62.8776 76.0236 62.9327 76.0833C62.9924 76.1384 63.0223 76.2073 63.0223 76.2899C63.0223 76.3725 62.9924 76.4414 62.9327 76.4965C62.8776 76.5516 62.8088 76.5792 62.7261 76.5792C62.6435 76.5792 62.5746 76.5516 62.5195 76.4965ZM66.7631 77.323V77.2679H66.9077V76.5792H67.3898V77.2679H68.4436V77.323H67.3898V79.8299C67.3898 80.1283 67.422 80.3441 67.4863 80.4773C67.5551 80.6104 67.6952 80.677 67.9064 80.677C68.1222 80.677 68.3403 80.6334 68.5606 80.5461L68.5813 80.6012C68.3517 80.6885 68.0877 80.7321 67.7893 80.7321C67.4954 80.7321 67.275 80.6724 67.1281 80.553C66.9812 80.4291 66.9077 80.1857 66.9077 79.823V77.323H66.7631ZM72.1124 79.031C72.1124 79.6003 72.2111 80.0181 72.4085 80.2844C72.6106 80.5507 72.8746 80.6839 73.2006 80.6839C73.6597 80.6839 74.0683 80.615 74.4265 80.4773L74.4471 80.5255C74.0798 80.6678 73.6643 80.739 73.2006 80.739C72.7414 80.739 72.3672 80.6012 72.078 80.3257C71.7887 80.0503 71.6441 79.6256 71.6441 79.0516C71.6441 78.4777 71.7956 78.0323 72.0986 77.7155C72.4017 77.3987 72.7873 77.2403 73.2557 77.2403C73.6322 77.2403 73.949 77.3528 74.2061 77.5778C74.4632 77.8028 74.5918 78.1356 74.5918 78.5764C74.5918 78.5994 74.5918 78.6223 74.5918 78.6453H72.1331C72.1193 78.7693 72.1124 78.8978 72.1124 79.031ZM74.1234 78.5902C74.1188 78.1494 74.0339 77.8234 73.8686 77.6122C73.7033 77.401 73.4898 77.2954 73.2281 77.2954C72.9664 77.2954 72.7322 77.4102 72.5256 77.6398C72.3236 77.8693 72.195 78.1862 72.14 78.5902H74.1234ZM77.8013 77.323V77.2679H77.946V76.5792H78.428V77.2679H79.4818V77.323H78.428V79.8299C78.428 80.1283 78.4602 80.3441 78.5245 80.4773C78.5933 80.6104 78.7334 80.677 78.9446 80.677C79.1604 80.677 79.3785 80.6334 79.5989 80.5461L79.6195 80.6012C79.3899 80.6885 79.1259 80.7321 78.8275 80.7321C78.5337 80.7321 78.3133 80.6724 78.1663 80.553C78.0194 80.4291 77.946 80.1857 77.946 79.823V77.323H77.8013ZM83.3729 79.9194C83.3729 80.2821 83.4693 80.514 83.6621 80.615C83.754 80.6609 83.8711 80.6839 84.0134 80.6839C84.3026 80.6839 84.5598 80.5737 84.7847 80.3533C85.0143 80.1329 85.1383 79.9286 85.1566 79.7403V77.2679H85.6387V80.2224C85.6387 80.3556 85.664 80.4589 85.7145 80.5324C85.7696 80.6012 85.8247 80.638 85.8798 80.6426L85.9556 80.6563H86.1691V80.7114H85.7489C85.5607 80.7114 85.4161 80.6701 85.3151 80.5875C85.2186 80.5048 85.1681 80.4222 85.1635 80.3395L85.1566 80.2224V79.9263C85.074 80.1237 84.9271 80.3097 84.7159 80.4842C84.5047 80.654 84.2728 80.739 84.0203 80.739C83.7723 80.739 83.568 80.716 83.4073 80.6701C83.2512 80.6196 83.1387 80.5507 83.0699 80.4635C82.9505 80.3212 82.8908 80.1375 82.8908 79.9125V77.2679H83.3729V79.9194ZM90.5862 77.564V77.4194C90.3796 77.502 90.1914 77.6696 90.0215 77.9221C89.8516 78.1701 89.7621 78.4042 89.7529 78.6246V80.7114H89.2708V77.2679H89.7529V78.3629C89.8263 78.0966 89.9664 77.8464 90.173 77.6122C90.3796 77.3735 90.6138 77.2495 90.8755 77.2403H90.903C90.9949 77.2403 91.0706 77.2725 91.1303 77.3367C91.1946 77.3964 91.2267 77.4722 91.2267 77.564C91.2267 77.6558 91.1946 77.7316 91.1303 77.7913C91.0706 77.851 90.9949 77.8808 90.903 77.8808C90.8112 77.8808 90.7354 77.851 90.6758 77.7913C90.6161 77.7316 90.5862 77.6558 90.5862 77.564ZM97.1366 80.7114C96.8244 80.7114 96.6109 80.6517 96.4961 80.5324C96.3905 80.4313 96.3377 80.3441 96.3377 80.2707V80.126C96.1127 80.5347 95.7523 80.739 95.2564 80.739C94.6779 80.739 94.3496 80.4773 94.2715 79.9538C94.2623 79.8987 94.2578 79.8436 94.2578 79.7886C94.2578 79.7289 94.2669 79.6646 94.2853 79.5957C94.3037 79.5268 94.3565 79.4511 94.4437 79.3684C94.6182 79.2031 95.0016 79.1021 95.5939 79.0654C95.7408 79.0516 95.8762 79.0447 96.0002 79.0447C96.1242 79.0447 96.2367 79.0493 96.3377 79.0585V77.9153C96.3285 77.9107 96.3285 77.89 96.3377 77.8533C96.3468 77.812 96.3377 77.7614 96.3101 77.7018C96.2872 77.6375 96.255 77.5755 96.2137 77.5158C96.1724 77.4561 96.0989 77.4056 95.9933 77.3643C95.8877 77.3184 95.75 77.2954 95.5801 77.2954C95.4102 77.2954 95.2105 77.3276 94.9809 77.3918C94.7559 77.4515 94.5906 77.5112 94.485 77.5709L94.4575 77.5227C94.8661 77.3344 95.2816 77.2403 95.704 77.2403C96.177 77.2403 96.4892 77.3253 96.6407 77.4951C96.7601 77.6283 96.8198 77.7683 96.8198 77.9153V80.2224C96.8198 80.3556 96.845 80.4589 96.8955 80.5324C96.9506 80.6012 97.0057 80.638 97.0608 80.6426L97.1366 80.6563H97.3501V80.7114H97.1366ZM95.3666 80.6839C95.6099 80.6839 95.828 80.6012 96.0209 80.4359C96.2183 80.2661 96.3239 80.1031 96.3377 79.947V79.1136C96.2137 79.1044 96.0874 79.0998 95.9589 79.0998C95.8349 79.0998 95.7109 79.1067 95.587 79.1205C95.238 79.1618 95.0107 79.2399 94.9051 79.3547C94.7995 79.4694 94.7467 79.6279 94.7467 79.8299C94.7467 79.8666 94.749 79.9079 94.7536 79.9538C94.7949 80.4405 94.9993 80.6839 95.3666 80.6839ZM109.391 78.0117V77.9428H111.092V78.0117H110.714C110.466 78.6866 110.055 79.2927 109.481 79.8299C109.201 80.0916 108.873 80.3051 108.496 80.4704C108.12 80.6311 107.732 80.7114 107.332 80.7114C106.951 80.7114 106.602 80.638 106.285 80.491C106.102 80.4084 105.939 80.3028 105.796 80.1742C105.659 80.0411 105.544 79.8643 105.452 79.6439C105.36 79.4189 105.314 79.1618 105.314 78.8726C105.314 78.3078 105.486 77.8326 105.831 77.4469C106.18 77.0567 106.575 76.8615 107.015 76.8615C107.814 76.8615 108.227 77.2174 108.255 77.929L109.398 77.0268L109.446 77.0681L106.03 79.7541C106.145 80.0296 106.308 80.2477 106.519 80.4084C106.735 80.5645 107.004 80.6426 107.325 80.6426C107.651 80.6426 107.975 80.5622 108.296 80.4015C108.622 80.2362 108.905 80.0227 109.143 79.761C109.626 79.2284 109.965 78.6453 110.163 78.0117H109.391ZM107.711 78.3629C107.706 77.8395 107.654 77.4699 107.553 77.2541C107.456 77.0383 107.291 76.9304 107.057 76.9304C106.827 76.9304 106.632 76.9924 106.471 77.1164C106.315 77.2357 106.193 77.3941 106.106 77.5916C105.946 77.9727 105.865 78.3882 105.865 78.8381L105.879 79.1412C105.902 79.3478 105.943 79.536 106.003 79.7059L107.711 78.3629ZM119.903 80.7114C119.714 80.7114 119.57 80.6701 119.469 80.5875C119.372 80.5048 119.322 80.4222 119.317 80.3395L119.31 80.2224V77.2679H119.792V80.2224C119.792 80.3556 119.818 80.4589 119.868 80.5324C119.923 80.6012 119.976 80.638 120.027 80.6426L120.109 80.6563H120.323V80.7114H119.903ZM119.352 76.4965C119.297 76.4414 119.269 76.3725 119.269 76.2899C119.269 76.2073 119.297 76.1384 119.352 76.0833C119.407 76.0236 119.476 75.9938 119.558 75.9938C119.641 75.9938 119.71 76.0236 119.765 76.0833C119.825 76.1384 119.854 76.2073 119.854 76.2899C119.854 76.3725 119.825 76.4414 119.765 76.4965C119.71 76.5516 119.641 76.5792 119.558 76.5792C119.476 76.5792 119.407 76.5516 119.352 76.4965ZM126.353 80.7114C126.165 80.7114 126.02 80.6701 125.919 80.5875C125.823 80.5048 125.773 80.4222 125.768 80.3395L125.761 80.2224V78.0599C125.761 77.6972 125.667 77.4653 125.479 77.3643C125.382 77.3184 125.263 77.2954 125.121 77.2954C124.827 77.2954 124.563 77.4125 124.329 77.6467C124.094 77.8762 123.977 78.0828 123.977 78.2665V80.7114H123.495V77.2679H123.977V78.053C124.055 77.8556 124.2 77.6719 124.411 77.502C124.622 77.3276 124.854 77.2403 125.107 77.2403C125.359 77.2403 125.564 77.2656 125.72 77.3161C125.88 77.362 125.997 77.4286 126.071 77.5158C126.186 77.6581 126.243 77.8418 126.243 78.0668V80.2224C126.243 80.3556 126.268 80.4589 126.319 80.5324C126.374 80.6012 126.429 80.638 126.484 80.6426L126.56 80.6563H126.773V80.7114H126.353ZM129.841 77.323V77.2679H129.985V76.5792H130.467V77.2679H131.521V77.323H130.467V79.8299C130.467 80.1283 130.5 80.3441 130.564 80.4773C130.633 80.6104 130.773 80.677 130.984 80.677C131.2 80.677 131.418 80.6334 131.638 80.5461L131.659 80.6012C131.429 80.6885 131.165 80.7321 130.867 80.7321C130.573 80.7321 130.353 80.6724 130.206 80.553C130.059 80.4291 129.985 80.1857 129.985 79.823V77.323H129.841ZM135.19 79.031C135.19 79.6003 135.289 80.0181 135.486 80.2844C135.688 80.5507 135.952 80.6839 136.278 80.6839C136.737 80.6839 137.146 80.615 137.504 80.4773L137.525 80.5255C137.157 80.6678 136.742 80.739 136.278 80.739C135.819 80.739 135.445 80.6012 135.156 80.3257C134.866 80.0503 134.722 79.6256 134.722 79.0516C134.722 78.4777 134.873 78.0323 135.176 77.7155C135.479 77.3987 135.865 77.2403 136.333 77.2403C136.71 77.2403 137.027 77.3528 137.284 77.5778C137.541 77.8028 137.669 78.1356 137.669 78.5764C137.669 78.5994 137.669 78.6223 137.669 78.6453H135.211C135.197 78.7693 135.19 78.8978 135.19 79.031ZM137.201 78.5902C137.196 78.1494 137.112 77.8234 136.946 77.6122C136.781 77.401 136.567 77.2954 136.306 77.2954C136.044 77.2954 135.81 77.4102 135.603 77.6398C135.401 77.8693 135.273 78.1862 135.218 78.5902H137.201ZM142.02 77.564V77.4194C141.814 77.502 141.625 77.6696 141.456 77.9221C141.286 78.1701 141.196 78.4042 141.187 78.6246V80.7114H140.705V77.2679H141.187V78.3629C141.26 78.0966 141.4 77.8464 141.607 77.6122C141.814 77.3735 142.048 77.2495 142.31 77.2403H142.337C142.429 77.2403 142.505 77.2725 142.564 77.3367C142.629 77.3964 142.661 77.4722 142.661 77.564C142.661 77.6558 142.629 77.7316 142.564 77.7913C142.505 77.851 142.429 77.8808 142.337 77.8808C142.245 77.8808 142.17 77.851 142.11 77.7913C142.05 77.7316 142.02 77.6558 142.02 77.564ZM146.637 80.7114C146.449 80.7114 146.304 80.6701 146.203 80.5875C146.107 80.5048 146.056 80.4222 146.052 80.3395L146.045 80.2224V77.2679H146.527V80.2224C146.527 80.3556 146.552 80.4589 146.603 80.5324C146.658 80.6012 146.711 80.638 146.761 80.6426L146.844 80.6563H147.057V80.7114H146.637ZM146.086 76.4965C146.031 76.4414 146.004 76.3725 146.004 76.2899C146.004 76.2073 146.031 76.1384 146.086 76.0833C146.141 76.0236 146.21 75.9938 146.293 75.9938C146.376 75.9938 146.444 76.0236 146.5 76.0833C146.559 76.1384 146.589 76.2073 146.589 76.2899C146.589 76.3725 146.559 76.4414 146.5 76.4965C146.444 76.5516 146.376 76.5792 146.293 76.5792C146.21 76.5792 146.141 76.5516 146.086 76.4965ZM151.654 80.739C151.171 80.739 150.779 80.6012 150.476 80.3257C150.173 80.0503 150.021 79.6256 150.021 79.0516C150.021 78.4777 150.177 78.0323 150.49 77.7155C150.806 77.3987 151.206 77.2403 151.688 77.2403C152.175 77.2403 152.57 77.3781 152.873 77.6535C153.176 77.929 153.327 78.3537 153.327 78.9277C153.327 79.5016 153.169 79.947 152.852 80.2638C152.54 80.5806 152.14 80.739 151.654 80.739ZM151.702 77.2954C151.353 77.2954 151.064 77.4515 150.834 77.7637C150.604 78.0714 150.49 78.503 150.49 79.0585C150.49 79.6095 150.595 80.0181 150.806 80.2844C151.018 80.5507 151.298 80.6839 151.647 80.6839C151.996 80.6839 152.285 80.5301 152.514 80.2224C152.744 79.9102 152.859 79.4786 152.859 78.9277C152.859 78.3721 152.753 77.9612 152.542 77.6949C152.331 77.4286 152.051 77.2954 151.702 77.2954ZM157.811 77.564V77.4194C157.604 77.502 157.416 77.6696 157.246 77.9221C157.076 78.1701 156.987 78.4042 156.978 78.6246V80.7114H156.495V77.2679H156.978V78.3629C157.051 78.0966 157.191 77.8464 157.398 77.6122C157.604 77.3735 157.838 77.2495 158.1 77.2403H158.128C158.22 77.2403 158.295 77.2725 158.355 77.3367C158.419 77.3964 158.451 77.4722 158.451 77.564C158.451 77.6558 158.419 77.7316 158.355 77.7913C158.295 77.851 158.22 77.8808 158.128 77.8808C158.036 77.8808 157.96 77.851 157.9 77.7913C157.841 77.7316 157.811 77.6558 157.811 77.564ZM161.985 79.031C161.985 79.6003 162.084 80.0181 162.281 80.2844C162.483 80.5507 162.747 80.6839 163.073 80.6839C163.533 80.6839 163.941 80.615 164.299 80.4773L164.32 80.5255C163.953 80.6678 163.537 80.739 163.073 80.739C162.614 80.739 162.24 80.6012 161.951 80.3257C161.662 80.0503 161.517 79.6256 161.517 79.0516C161.517 78.4777 161.668 78.0323 161.971 77.7155C162.274 77.3987 162.66 77.2403 163.128 77.2403C163.505 77.2403 163.822 77.3528 164.079 77.5778C164.336 77.8028 164.465 78.1356 164.465 78.5764C164.465 78.5994 164.465 78.6223 164.465 78.6453H162.006C161.992 78.7693 161.985 78.8978 161.985 79.031ZM163.996 78.5902C163.992 78.1494 163.907 77.8234 163.741 77.6122C163.576 77.401 163.363 77.2954 163.101 77.2954C162.839 77.2954 162.605 77.4102 162.398 77.6398C162.196 77.8693 162.068 78.1862 162.013 78.5902H163.996ZM169.72 77.5089C169.646 77.4492 169.527 77.3987 169.361 77.3574C169.201 77.3161 169.079 77.2954 168.996 77.2954C168.914 77.2954 168.866 77.2954 168.852 77.2954C168.604 77.3 168.425 77.3643 168.315 77.4883C168.204 77.6076 168.149 77.7431 168.149 77.8946C168.149 78.0461 168.198 78.1747 168.294 78.2803C168.39 78.3813 168.51 78.4616 168.652 78.5213C168.799 78.5764 168.955 78.6407 169.12 78.7142C169.29 78.7876 169.446 78.8634 169.589 78.9414C169.736 79.0149 169.857 79.1251 169.954 79.272C170.05 79.4144 170.098 79.5934 170.098 79.8092C170.098 80.025 170.023 80.2087 169.871 80.3602C169.72 80.5117 169.55 80.6127 169.361 80.6632C169.178 80.7137 168.978 80.739 168.762 80.739C168.294 80.739 167.943 80.6357 167.709 80.4291L167.75 80.3877C167.842 80.475 167.977 80.5461 168.156 80.6012C168.34 80.6563 168.517 80.6839 168.687 80.6839C168.957 80.6839 169.18 80.6104 169.355 80.4635C169.534 80.312 169.623 80.126 169.623 79.9056C169.623 79.6807 169.557 79.5016 169.423 79.3684C169.29 79.2307 169.127 79.1251 168.934 79.0516C168.746 78.9736 168.556 78.8978 168.363 78.8244C168.17 78.7463 168.007 78.6407 167.874 78.5075C167.741 78.3698 167.674 78.2114 167.674 78.0323C167.674 77.8533 167.715 77.7086 167.798 77.5985C167.881 77.4837 167.991 77.4033 168.129 77.3574C168.363 77.2793 168.597 77.2403 168.831 77.2403C169.226 77.2403 169.534 77.3138 169.754 77.4607L169.72 77.5089Z" fill="black"/>
<path d="M41.2273 80.7114C40.9151 80.7114 40.7016 80.6517 40.5868 80.5324C40.4812 80.4313 40.4284 80.3441 40.4284 80.2707V80.126C40.2034 80.5347 39.843 80.739 39.3471 80.739C38.7686 80.739 38.4403 80.4773 38.3622 79.9538C38.3531 79.8987 38.3485 79.8436 38.3485 79.7886C38.3485 79.7289 38.3577 79.6646 38.376 79.5957C38.3944 79.5268 38.4472 79.4511 38.5344 79.3684C38.7089 79.2031 39.0923 79.1021 39.6846 79.0654C39.8315 79.0516 39.9669 79.0447 40.0909 79.0447C40.2149 79.0447 40.3274 79.0493 40.4284 79.0585V77.9153C40.4192 77.9107 40.4192 77.89 40.4284 77.8533C40.4376 77.812 40.4284 77.7614 40.4008 77.7018C40.3779 77.6375 40.3457 77.5755 40.3044 77.5158C40.2631 77.4561 40.1896 77.4056 40.084 77.3643C39.9784 77.3184 39.8407 77.2954 39.6708 77.2954C39.5009 77.2954 39.3012 77.3276 39.0716 77.3918C38.8466 77.4515 38.6813 77.5112 38.5757 77.5709L38.5482 77.5227C38.9568 77.3344 39.3724 77.2403 39.7948 77.2403C40.2677 77.2403 40.5799 77.3253 40.7314 77.4951C40.8508 77.6283 40.9105 77.7683 40.9105 77.9153V80.2224C40.9105 80.3556 40.9357 80.4589 40.9862 80.5324C41.0413 80.6012 41.0964 80.638 41.1515 80.6426L41.2273 80.6563H41.4408V80.7114H41.2273ZM39.4573 80.6839C39.7006 80.6839 39.9187 80.6012 40.1116 80.4359C40.309 80.2661 40.4146 80.1031 40.4284 79.947V79.1136C40.3044 79.1044 40.1781 79.0998 40.0496 79.0998C39.9256 79.0998 39.8017 79.1067 39.6777 79.1205C39.3287 79.1618 39.1015 79.2399 38.9959 79.3547C38.8903 79.4694 38.8375 79.6279 38.8375 79.8299C38.8375 79.8666 38.8398 79.9079 38.8443 79.9538C38.8857 80.4405 39.09 80.6839 39.4573 80.6839ZM45.89 77.564V77.4194C45.6834 77.502 45.4952 77.6696 45.3253 77.9221C45.1554 78.1701 45.0659 78.4042 45.0567 78.6246V80.7114H44.5746V77.2679H45.0567V78.3629C45.1301 78.0966 45.2702 77.8464 45.4768 77.6122C45.6834 77.3735 45.9176 77.2495 46.1793 77.2403H46.2068C46.2987 77.2403 46.3744 77.2725 46.4341 77.3367C46.4984 77.3964 46.5305 77.4722 46.5305 77.564C46.5305 77.6558 46.4984 77.7316 46.4341 77.7913C46.3744 77.851 46.2987 77.8808 46.2068 77.8808C46.115 77.8808 46.0392 77.851 45.9796 77.7913C45.9199 77.7316 45.89 77.6558 45.89 77.564ZM49.596 79.1136C49.596 78.5167 49.7406 78.0553 50.0299 77.7293C50.3191 77.4033 50.753 77.2403 51.3315 77.2403C51.6024 77.2403 51.8756 77.3092 52.1511 77.4469V77.2679H52.6332V82.4332H52.1511V80.1122C52.0639 80.2729 51.9192 80.4153 51.7172 80.5392C51.5152 80.6632 51.2764 80.7252 51.001 80.7252C50.0643 80.7022 49.596 80.165 49.596 79.1136ZM51.0078 80.6701C51.3155 80.6701 51.5795 80.5875 51.7999 80.4222C52.0203 80.2569 52.1373 80.0939 52.1511 79.9332V77.5089C51.8251 77.3666 51.545 77.2954 51.3109 77.2954C50.9022 77.2954 50.5946 77.4561 50.388 77.7775C50.1814 78.0943 50.0781 78.5397 50.0781 79.1136C50.0781 80.1513 50.388 80.6701 51.0078 80.6701ZM56.559 79.9194C56.559 80.2821 56.6554 80.514 56.8482 80.615C56.9401 80.6609 57.0571 80.6839 57.1995 80.6839C57.4887 80.6839 57.7458 80.5737 57.9708 80.3533C58.2004 80.1329 58.3244 79.9286 58.3427 79.7403V77.2679H58.8248V80.2224C58.8248 80.3556 58.8501 80.4589 58.9006 80.5324C58.9557 80.6012 59.0108 80.638 59.0659 80.6426L59.1416 80.6563H59.3551V80.7114H58.935C58.7468 80.7114 58.6021 80.6701 58.5011 80.5875C58.4047 80.5048 58.3542 80.4222 58.3496 80.3395L58.3427 80.2224V79.9263C58.2601 80.1237 58.1132 80.3097 57.902 80.4842C57.6907 80.654 57.4589 80.739 57.2064 80.739C56.9584 80.739 56.7541 80.716 56.5934 80.6701C56.4373 80.6196 56.3248 80.5507 56.2559 80.4635C56.1366 80.3212 56.0769 80.1375 56.0769 79.9125V77.2679H56.559V79.9194ZM63.1594 80.7114C62.9711 80.7114 62.8265 80.6701 62.7255 80.5875C62.629 80.5048 62.5785 80.4222 62.5739 80.3395L62.5671 80.2224V77.2679H63.0492V80.2224C63.0492 80.3556 63.0744 80.4589 63.1249 80.5324C63.18 80.6012 63.2328 80.638 63.2833 80.6426L63.366 80.6563H63.5795V80.7114H63.1594ZM62.6084 76.4965C62.5533 76.4414 62.5257 76.3725 62.5257 76.2899C62.5257 76.2073 62.5533 76.1384 62.6084 76.0833C62.6635 76.0236 62.7324 75.9938 62.815 75.9938C62.8976 75.9938 62.9665 76.0236 63.0216 76.0833C63.0813 76.1384 63.1111 76.2073 63.1111 76.2899C63.1111 76.3725 63.0813 76.4414 63.0216 76.4965C62.9665 76.5516 62.8976 76.5792 62.815 76.5792C62.7324 76.5792 62.6635 76.5516 62.6084 76.4965ZM66.852 77.323V77.2679H66.9966V76.5792H67.4787V77.2679H68.5324V77.323H67.4787V79.8299C67.4787 80.1283 67.5108 80.3441 67.5751 80.4773C67.644 80.6104 67.784 80.677 67.9952 80.677C68.211 80.677 68.4291 80.6334 68.6495 80.5461L68.6702 80.6012C68.4406 80.6885 68.1766 80.7321 67.8782 80.7321C67.5843 80.7321 67.3639 80.6724 67.217 80.553C67.0701 80.4291 66.9966 80.1857 66.9966 79.823V77.323H66.852ZM72.2013 79.031C72.2013 79.6003 72.3 80.0181 72.4974 80.2844C72.6994 80.5507 72.9634 80.6839 73.2894 80.6839C73.7486 80.6839 74.1572 80.615 74.5153 80.4773L74.536 80.5255C74.1687 80.6678 73.7532 80.739 73.2894 80.739C72.8303 80.739 72.4561 80.6012 72.1668 80.3257C71.8776 80.0503 71.7329 79.6256 71.7329 79.0516C71.7329 78.4777 71.8845 78.0323 72.1875 77.7155C72.4905 77.3987 72.8762 77.2403 73.3445 77.2403C73.721 77.2403 74.0378 77.3528 74.295 77.5778C74.5521 77.8028 74.6806 78.1356 74.6806 78.5764C74.6806 78.5994 74.6806 78.6223 74.6806 78.6453H72.2219C72.2082 78.7693 72.2013 78.8978 72.2013 79.031ZM74.2123 78.5902C74.2077 78.1494 74.1228 77.8234 73.9575 77.6122C73.7922 77.401 73.5787 77.2954 73.317 77.2954C73.0553 77.2954 72.8211 77.4102 72.6145 77.6398C72.4125 77.8693 72.2839 78.1862 72.2288 78.5902H74.2123ZM77.8902 77.323V77.2679H78.0348V76.5792H78.5169V77.2679H79.5706V77.323H78.5169V79.8299C78.5169 80.1283 78.5491 80.3441 78.6133 80.4773C78.6822 80.6104 78.8222 80.677 79.0334 80.677C79.2492 80.677 79.4673 80.6334 79.6877 80.5461L79.7084 80.6012C79.4788 80.6885 79.2148 80.7321 78.9164 80.7321C78.6225 80.7321 78.4021 80.6724 78.2552 80.553C78.1083 80.4291 78.0348 80.1857 78.0348 79.823V77.323H77.8902ZM83.4618 79.9194C83.4618 80.2821 83.5582 80.514 83.751 80.615C83.8428 80.6609 83.9599 80.6839 84.1023 80.6839C84.3915 80.6839 84.6486 80.5737 84.8736 80.3533C85.1032 80.1329 85.2271 79.9286 85.2455 79.7403V77.2679H85.7276V80.2224C85.7276 80.3556 85.7529 80.4589 85.8034 80.5324C85.8585 80.6012 85.9136 80.638 85.9687 80.6426L86.0444 80.6563H86.2579V80.7114H85.8378C85.6496 80.7114 85.5049 80.6701 85.4039 80.5875C85.3075 80.5048 85.257 80.4222 85.2524 80.3395L85.2455 80.2224V79.9263C85.1629 80.1237 85.0159 80.3097 84.8047 80.4842C84.5935 80.654 84.3617 80.739 84.1091 80.739C83.8612 80.739 83.6569 80.716 83.4962 80.6701C83.3401 80.6196 83.2276 80.5507 83.1587 80.4635C83.0393 80.3212 82.9797 80.1375 82.9797 79.9125V77.2679H83.4618V79.9194ZM90.6751 77.564V77.4194C90.4685 77.502 90.2802 77.6696 90.1103 77.9221C89.9405 78.1701 89.8509 78.4042 89.8418 78.6246V80.7114H89.3597V77.2679H89.8418V78.3629C89.9152 78.0966 90.0553 77.8464 90.2619 77.6122C90.4685 77.3735 90.7026 77.2495 90.9643 77.2403H90.9919C91.0837 77.2403 91.1595 77.2725 91.2192 77.3367C91.2835 77.3964 91.3156 77.4722 91.3156 77.564C91.3156 77.6558 91.2835 77.7316 91.2192 77.7913C91.1595 77.851 91.0837 77.8808 90.9919 77.8808C90.9001 77.8808 90.8243 77.851 90.7646 77.7913C90.7049 77.7316 90.6751 77.6558 90.6751 77.564ZM97.2254 80.7114C96.9132 80.7114 96.6997 80.6517 96.5849 80.5324C96.4793 80.4313 96.4265 80.3441 96.4265 80.2707V80.126C96.2016 80.5347 95.8411 80.739 95.3453 80.739C94.7667 80.739 94.4384 80.4773 94.3604 79.9538C94.3512 79.8987 94.3466 79.8436 94.3466 79.7886C94.3466 79.7289 94.3558 79.6646 94.3742 79.5957C94.3925 79.5268 94.4453 79.4511 94.5326 79.3684C94.707 79.2031 95.0904 79.1021 95.6827 79.0654C95.8296 79.0516 95.9651 79.0447 96.0891 79.0447C96.213 79.0447 96.3255 79.0493 96.4265 79.0585V77.9153C96.4173 77.9107 96.4173 77.89 96.4265 77.8533C96.4357 77.812 96.4265 77.7614 96.399 77.7018C96.376 77.6375 96.3439 77.5755 96.3026 77.5158C96.2612 77.4561 96.1878 77.4056 96.0822 77.3643C95.9766 77.3184 95.8388 77.2954 95.6689 77.2954C95.4991 77.2954 95.2993 77.3276 95.0698 77.3918C94.8448 77.4515 94.6795 77.5112 94.5739 77.5709L94.5463 77.5227C94.955 77.3344 95.3705 77.2403 95.7929 77.2403C96.2658 77.2403 96.578 77.3253 96.7296 77.4951C96.8489 77.6283 96.9086 77.7683 96.9086 77.9153V80.2224C96.9086 80.3556 96.9339 80.4589 96.9844 80.5324C97.0395 80.6012 97.0946 80.638 97.1497 80.6426L97.2254 80.6563H97.4389V80.7114H97.2254ZM95.4554 80.6839C95.6988 80.6839 95.9169 80.6012 96.1097 80.4359C96.3072 80.2661 96.4128 80.1031 96.4265 79.947V79.1136C96.3026 79.1044 96.1763 79.0998 96.0477 79.0998C95.9238 79.0998 95.7998 79.1067 95.6758 79.1205C95.3269 79.1618 95.0996 79.2399 94.994 79.3547C94.8884 79.4694 94.8356 79.6279 94.8356 79.8299C94.8356 79.8666 94.8379 79.9079 94.8425 79.9538C94.8838 80.4405 95.0881 80.6839 95.4554 80.6839ZM109.48 78.0117V77.9428H111.181V78.0117H110.803C110.555 78.6866 110.144 79.2927 109.57 79.8299C109.29 80.0916 108.961 80.3051 108.585 80.4704C108.208 80.6311 107.82 80.7114 107.421 80.7114C107.04 80.7114 106.691 80.638 106.374 80.491C106.191 80.4084 106.028 80.3028 105.885 80.1742C105.747 80.0411 105.633 79.8643 105.541 79.6439C105.449 79.4189 105.403 79.1618 105.403 78.8726C105.403 78.3078 105.575 77.8326 105.92 77.4469C106.269 77.0567 106.663 76.8615 107.104 76.8615C107.903 76.8615 108.316 77.2174 108.344 77.929L109.487 77.0268L109.535 77.0681L106.119 79.7541C106.234 80.0296 106.397 80.2477 106.608 80.4084C106.824 80.5645 107.093 80.6426 107.414 80.6426C107.74 80.6426 108.064 80.5622 108.385 80.4015C108.711 80.2362 108.994 80.0227 109.232 79.761C109.714 79.2284 110.054 78.6453 110.252 78.0117H109.48ZM107.8 78.3629C107.795 77.8395 107.742 77.4699 107.641 77.2541C107.545 77.0383 107.38 76.9304 107.146 76.9304C106.916 76.9304 106.721 76.9924 106.56 77.1164C106.404 77.2357 106.282 77.3941 106.195 77.5916C106.034 77.9727 105.954 78.3882 105.954 78.8381L105.968 79.1412C105.991 79.3478 106.032 79.536 106.092 79.7059L107.8 78.3629ZM119.991 80.7114C119.803 80.7114 119.659 80.6701 119.558 80.5875C119.461 80.5048 119.411 80.4222 119.406 80.3395L119.399 80.2224V77.2679H119.881V80.2224C119.881 80.3556 119.907 80.4589 119.957 80.5324C120.012 80.6012 120.065 80.638 120.115 80.6426L120.198 80.6563H120.412V80.7114H119.991ZM119.441 76.4965C119.385 76.4414 119.358 76.3725 119.358 76.2899C119.358 76.2073 119.385 76.1384 119.441 76.0833C119.496 76.0236 119.564 75.9938 119.647 75.9938C119.73 75.9938 119.799 76.0236 119.854 76.0833C119.913 76.1384 119.943 76.2073 119.943 76.2899C119.943 76.3725 119.913 76.4414 119.854 76.4965C119.799 76.5516 119.73 76.5792 119.647 76.5792C119.564 76.5792 119.496 76.5516 119.441 76.4965ZM126.442 80.7114C126.254 80.7114 126.109 80.6701 126.008 80.5875C125.912 80.5048 125.861 80.4222 125.857 80.3395L125.85 80.2224V78.0599C125.85 77.6972 125.756 77.4653 125.568 77.3643C125.471 77.3184 125.352 77.2954 125.209 77.2954C124.916 77.2954 124.652 77.4125 124.417 77.6467C124.183 77.8762 124.066 78.0828 124.066 78.2665V80.7114H123.584V77.2679H124.066V78.053C124.144 77.8556 124.289 77.6719 124.5 77.502C124.711 77.3276 124.943 77.2403 125.196 77.2403C125.448 77.2403 125.652 77.2656 125.809 77.3161C125.969 77.362 126.086 77.4286 126.16 77.5158C126.275 77.6581 126.332 77.8418 126.332 78.0668V80.2224C126.332 80.3556 126.357 80.4589 126.408 80.5324C126.463 80.6012 126.518 80.638 126.573 80.6426L126.649 80.6563H126.862V80.7114H126.442ZM129.93 77.323V77.2679H130.074V76.5792H130.556V77.2679H131.61V77.323H130.556V79.8299C130.556 80.1283 130.588 80.3441 130.653 80.4773C130.722 80.6104 130.862 80.677 131.073 80.677C131.289 80.677 131.507 80.6334 131.727 80.5461L131.748 80.6012C131.518 80.6885 131.254 80.7321 130.956 80.7321C130.662 80.7321 130.442 80.6724 130.295 80.553C130.148 80.4291 130.074 80.1857 130.074 79.823V77.323H129.93ZM135.279 79.031C135.279 79.6003 135.378 80.0181 135.575 80.2844C135.777 80.5507 136.041 80.6839 136.367 80.6839C136.826 80.6839 137.235 80.615 137.593 80.4773L137.614 80.5255C137.246 80.6678 136.831 80.739 136.367 80.739C135.908 80.739 135.534 80.6012 135.244 80.3257C134.955 80.0503 134.811 79.6256 134.811 79.0516C134.811 78.4777 134.962 78.0323 135.265 77.7155C135.568 77.3987 135.954 77.2403 136.422 77.2403C136.799 77.2403 137.115 77.3528 137.373 77.5778C137.63 77.8028 137.758 78.1356 137.758 78.5764C137.758 78.5994 137.758 78.6223 137.758 78.6453H135.3C135.286 78.7693 135.279 78.8978 135.279 79.031ZM137.29 78.5902C137.285 78.1494 137.2 77.8234 137.035 77.6122C136.87 77.401 136.656 77.2954 136.395 77.2954C136.133 77.2954 135.899 77.4102 135.692 77.6398C135.49 77.8693 135.362 78.1862 135.306 78.5902H137.29ZM142.109 77.564V77.4194C141.903 77.502 141.714 77.6696 141.544 77.9221C141.375 78.1701 141.285 78.4042 141.276 78.6246V80.7114H140.794V77.2679H141.276V78.3629C141.349 78.0966 141.489 77.8464 141.696 77.6122C141.903 77.3735 142.137 77.2495 142.398 77.2403H142.426C142.518 77.2403 142.594 77.2725 142.653 77.3367C142.718 77.3964 142.75 77.4722 142.75 77.564C142.75 77.6558 142.718 77.7316 142.653 77.7913C142.594 77.851 142.518 77.8808 142.426 77.8808C142.334 77.8808 142.258 77.851 142.199 77.7913C142.139 77.7316 142.109 77.6558 142.109 77.564ZM146.726 80.7114C146.538 80.7114 146.393 80.6701 146.292 80.5875C146.196 80.5048 146.145 80.4222 146.141 80.3395L146.134 80.2224V77.2679H146.616V80.2224C146.616 80.3556 146.641 80.4589 146.692 80.5324C146.747 80.6012 146.8 80.638 146.85 80.6426L146.933 80.6563H147.146V80.7114H146.726ZM146.175 76.4965C146.12 76.4414 146.093 76.3725 146.093 76.2899C146.093 76.2073 146.12 76.1384 146.175 76.0833C146.23 76.0236 146.299 75.9938 146.382 75.9938C146.464 75.9938 146.533 76.0236 146.588 76.0833C146.648 76.1384 146.678 76.2073 146.678 76.2899C146.678 76.3725 146.648 76.4414 146.588 76.4965C146.533 76.5516 146.464 76.5792 146.382 76.5792C146.299 76.5792 146.23 76.5516 146.175 76.4965ZM151.742 80.739C151.26 80.739 150.868 80.6012 150.565 80.3257C150.262 80.0503 150.11 79.6256 150.11 79.0516C150.11 78.4777 150.266 78.0323 150.579 77.7155C150.895 77.3987 151.295 77.2403 151.777 77.2403C152.264 77.2403 152.658 77.3781 152.961 77.6535C153.264 77.929 153.416 78.3537 153.416 78.9277C153.416 79.5016 153.258 79.947 152.941 80.2638C152.629 80.5806 152.229 80.739 151.742 80.739ZM151.791 77.2954C151.442 77.2954 151.152 77.4515 150.923 77.7637C150.693 78.0714 150.579 78.503 150.579 79.0585C150.579 79.6095 150.684 80.0181 150.895 80.2844C151.107 80.5507 151.387 80.6839 151.736 80.6839C152.084 80.6839 152.374 80.5301 152.603 80.2224C152.833 79.9102 152.948 79.4786 152.948 78.9277C152.948 78.3721 152.842 77.9612 152.631 77.6949C152.42 77.4286 152.14 77.2954 151.791 77.2954ZM157.9 77.564V77.4194C157.693 77.502 157.505 77.6696 157.335 77.9221C157.165 78.1701 157.076 78.4042 157.066 78.6246V80.7114H156.584V77.2679H157.066V78.3629C157.14 78.0966 157.28 77.8464 157.487 77.6122C157.693 77.3735 157.927 77.2495 158.189 77.2403H158.217C158.308 77.2403 158.384 77.2725 158.444 77.3367C158.508 77.3964 158.54 77.4722 158.54 77.564C158.54 77.6558 158.508 77.7316 158.444 77.7913C158.384 77.851 158.308 77.8808 158.217 77.8808C158.125 77.8808 158.049 77.851 157.989 77.7913C157.93 77.7316 157.9 77.6558 157.9 77.564ZM162.074 79.031C162.074 79.6003 162.173 80.0181 162.37 80.2844C162.572 80.5507 162.836 80.6839 163.162 80.6839C163.621 80.6839 164.03 80.615 164.388 80.4773L164.409 80.5255C164.041 80.6678 163.626 80.739 163.162 80.739C162.703 80.739 162.329 80.6012 162.04 80.3257C161.75 80.0503 161.606 79.6256 161.606 79.0516C161.606 78.4777 161.757 78.0323 162.06 77.7155C162.363 77.3987 162.749 77.2403 163.217 77.2403C163.594 77.2403 163.911 77.3528 164.168 77.5778C164.425 77.8028 164.553 78.1356 164.553 78.5764C164.553 78.5994 164.553 78.6223 164.553 78.6453H162.095C162.081 78.7693 162.074 78.8978 162.074 79.031ZM164.085 78.5902C164.081 78.1494 163.996 77.8234 163.83 77.6122C163.665 77.401 163.451 77.2954 163.19 77.2954C162.928 77.2954 162.694 77.4102 162.487 77.6398C162.285 77.8693 162.157 78.1862 162.102 78.5902H164.085ZM169.808 77.5089C169.735 77.4492 169.616 77.3987 169.45 77.3574C169.29 77.3161 169.168 77.2954 169.085 77.2954C169.003 77.2954 168.954 77.2954 168.941 77.2954C168.693 77.3 168.514 77.3643 168.403 77.4883C168.293 77.6076 168.238 77.7431 168.238 77.8946C168.238 78.0461 168.286 78.1747 168.383 78.2803C168.479 78.3813 168.599 78.4616 168.741 78.5213C168.888 78.5764 169.044 78.6407 169.209 78.7142C169.379 78.7876 169.535 78.8634 169.678 78.9414C169.825 79.0149 169.946 79.1251 170.043 79.272C170.139 79.4144 170.187 79.5934 170.187 79.8092C170.187 80.025 170.111 80.2087 169.96 80.3602C169.808 80.5117 169.639 80.6127 169.45 80.6632C169.267 80.7137 169.067 80.739 168.851 80.739C168.383 80.739 168.032 80.6357 167.797 80.4291L167.839 80.3877C167.931 80.475 168.066 80.5461 168.245 80.6012C168.429 80.6563 168.606 80.6839 168.775 80.6839C169.046 80.6839 169.269 80.6104 169.443 80.4635C169.623 80.312 169.712 80.126 169.712 79.9056C169.712 79.6807 169.645 79.5016 169.512 79.3684C169.379 79.2307 169.216 79.1251 169.023 79.0516C168.835 78.9736 168.645 78.8978 168.452 78.8244C168.259 78.7463 168.096 78.6407 167.963 78.5075C167.83 78.3698 167.763 78.2114 167.763 78.0323C167.763 77.8533 167.804 77.7086 167.887 77.5985C167.97 77.4837 168.08 77.4033 168.218 77.3574C168.452 77.2793 168.686 77.2403 168.92 77.2403C169.315 77.2403 169.623 77.3138 169.843 77.4607L169.808 77.5089Z" fill="black"/>
<defs>
<filter id="filter0_d_286_550" x="19.6593" y="60.9854" width="169.638" height="12.7865" filterUnits="userSpaceOnUse" color-interpolation-filters="sRGB">
<feFlood flood-opacity="0" result="BackgroundImageFix"/>
<feColorMatrix in="SourceAlpha" type="matrix" values="0 0 0 0 0 0 0 0 0 0 0 0 0 0 0 0 0 0 127 0" result="hardAlpha"/>
<feOffset dy="0.354418"/>
<feGaussianBlur stdDeviation="0.177209"/>
<feComposite in2="hardAlpha" operator="out"/>
<feColorMatrix type="matrix" values="0 0 0 0 0 0 0 0 0 0 0 0 0 0 0 0 0 0 0.25 0"/>
<feBlend mode="normal" in2="BackgroundImageFix" result="effect1_dropShadow_286_550"/>
<feBlend mode="normal" in="SourceGraphic" in2="effect1_dropShadow_286_550" result="shape"/>
</filter>
</defs>
</svg>
